<?xml version="1.0" encoding="utf-8"?>
<!-- Generator: Adobe Illustrator 20.0.0, SVG Export Plug-In . SVG Version: 6.00 Build 0)  -->
<svg version="1.1" id="Layer_1" xmlns="http://www.w3.org/2000/svg" xmlns:xlink="http://www.w3.org/1999/xlink"
     width="151" height="35"
     viewBox="0 160 950 310"
     preserveAspectRatio="none"
>
    <style type="text/css">
        .st0{fill:#fff;}
        .st1{fill:none;stroke:#fff;strokeWidth:3;stroke-miterlimit:10;}
        .st2{fill:none;stroke:#fff;strokeWidth:2;stroke-miterlimit:10;}
        .st3{fill:none;stroke:#fff;strokeWidth:0.7921;stroke-miterlimit:10;}
        .st4{fill:none;stroke:#fff;strokeWidth:14.0466;stroke-miterlimit:10;}
        .st5{fill:none;stroke:#fff;strokeWidth:9.3644;stroke-miterlimit:10;}
        .st6{fill:none;stroke:#fff;strokeWidth:3.7089;stroke-miterlimit:10;}
        .st7{fill:#FFFFFF;}
        .st8{fill:none;stroke:#FFFFFF;strokeWidth:3;stroke-miterlimit:10;}
        .st9{fill:none;stroke:#FFFFFF;strokeWidth:2;stroke-miterlimit:10;}
        .st10{fill:none;stroke:#FFFFFF;strokeWidth:0.7921;stroke-miterlimit:10;}
        .st11{fill:none;stroke:#FFFFFF;strokeWidth:14.3423;stroke-miterlimit:10;}
        .st12{fill:none;stroke:#FFFFFF;strokeWidth:9.5615;stroke-miterlimit:10;}
        .st13{fill:none;stroke:#FFFFFF;strokeWidth:3.7869;stroke-miterlimit:10;}
        .st14{fill:none;stroke:#FFFFFF;strokeWidth:3.6167;stroke-miterlimit:10;}
        .st15{fill:none;stroke:#FFFFFF;strokeWidth:2.4111;stroke-miterlimit:10;}
        .st16{fill:none;stroke:#FFFFFF;strokeWidth:0.955;stroke-miterlimit:10;}
        .st17{fill:none;stroke:#FFFFFF;strokeWidth:22.3683;stroke-miterlimit:10;}
        .st18{fill:none;stroke:#FFFFFF;strokeWidth:14.9122;stroke-miterlimit:10;}
        .st19{fill:none;stroke:#FFFFFF;strokeWidth:5.9061;stroke-miterlimit:10;}
    </style>
    <g>
        <path class="st0" d="M98.5,372.6c-0.1-3.1-1-5.5-2.8-7.2c-1.8-1.7-4.6-2.6-8.4-2.6c-1.7,0-3.4,0.1-4.8,0.4
		c-1.5,0.3-2.8,0.7-3.9,1.3s-2,1.3-2.6,2.3c-0.6,0.9-0.9,2-0.9,3.3c0,1.6,0.7,2.9,2,4c1.3,1.1,3.7,2.2,7.1,3.2l9.9,3.2
		c2.7,0.9,5.1,1.9,7.5,3c2.3,1.1,4.4,2.5,6.1,4.1c1.7,1.6,3.1,3.5,4.1,5.7c1,2.2,1.5,4.9,1.5,7.9c0,3-0.5,5.7-1.4,8.1
		c-0.9,2.4-2.2,4.5-3.8,6.3c-1.6,1.8-3.5,3.4-5.8,4.7c-2.2,1.3-4.6,2.4-7.2,3.2c-2.6,0.8-5.2,1.5-8,1.9c-2.8,0.4-5.6,0.6-8.4,0.6
		c-2.4,0-4.8-0.2-7.2-0.5c-2.5-0.3-4.8-0.8-7.1-1.6s-4.4-1.7-6.4-2.9c-2-1.2-3.8-2.6-5.2-4.3c-1.5-1.7-2.7-3.6-3.5-5.8
		c-0.9-2.2-1.3-4.7-1.3-7.6v-2.9h18.5v2.4c0,1.6,0.4,3.1,1.3,4.3c0.8,1.2,1.9,2.2,3.3,3c1.3,0.8,2.9,1.4,4.6,1.8
		c1.7,0.4,3.4,0.6,5.2,0.6c1.5,0,3-0.2,4.5-0.4c1.5-0.3,2.9-0.8,4-1.4c1.2-0.7,2.2-1.6,2.9-2.7c0.7-1.1,1.1-2.5,1.1-4.1
		c0-1.3-0.2-2.3-0.5-3.2c-0.3-0.8-0.8-1.6-1.4-2.2c-0.6-0.6-1.4-1.1-2.2-1.5c-0.9-0.4-1.9-0.8-2.9-1.2l-15.4-4.9
		c-2.5-0.8-4.7-1.7-6.7-2.7c-2-1-3.6-2.1-4.9-3.6c-1.3-1.4-2.3-3.1-3.1-5.1c-0.7-2-1.1-4.4-1.1-7.2c0-2.8,0.5-5.4,1.4-7.6
		c0.9-2.2,2.2-4.2,3.8-5.9c1.6-1.7,3.5-3.2,5.6-4.4c2.1-1.2,4.4-2.2,6.8-2.9c2.4-0.8,4.8-1.3,7.3-1.6c2.5-0.3,4.9-0.5,7.3-0.5
		c4,0,7.8,0.3,11.4,1c3.6,0.7,6.8,1.9,9.5,3.6s4.9,4.1,6.5,7.1c1.6,3,2.4,6.8,2.3,11.5H98.5z"/>
        <path class="st0" d="M134.6,351.4h19.3l-2,9l0.3,0.3c1.1-2,2.5-3.6,4.1-5c1.6-1.4,3.3-2.5,5.2-3.5s3.9-1.6,6-2
		c2.1-0.4,4.3-0.7,6.5-0.7c4.3,0,8.2,0.7,11.6,2c3.4,1.3,6.3,3.3,8.6,5.8c2.4,2.5,4.2,5.5,5.4,9c1.2,3.5,1.9,7.5,1.9,11.8
		c0,4-0.4,7.9-1.1,11.8c-0.7,3.9-1.8,7.6-3.2,11.2c-1.4,3.6-3.2,6.9-5.4,9.9c-2.2,3-4.7,5.6-7.6,7.9c-2.9,2.2-6.2,4-9.9,5.2
		c-3.7,1.3-7.8,1.9-12.2,1.9c-2.1,0-4.2-0.2-6.3-0.7s-4.1-1.2-5.9-2.1s-3.5-2.2-4.9-3.6c-1.4-1.5-2.5-3.2-3.3-5.2h-0.4l-7.6,35.3
		h-20L134.6,351.4z M167.4,364.5c-2.5,0-4.7,0.5-6.8,1.4s-3.9,2.2-5.5,3.8c-1.6,1.6-3,3.4-4.3,5.5c-1.2,2.1-2.2,4.3-3,6.6
		c-0.8,2.3-1.4,4.6-1.8,6.9c-0.4,2.3-0.6,4.5-0.6,6.6c0,2.3,0.3,4.5,0.9,6.4c0.6,1.9,1.5,3.6,2.7,5c1.2,1.4,2.7,2.5,4.5,3.3
		c1.8,0.8,3.9,1.2,6.3,1.2c3.7,0,7-1,9.7-2.9c2.7-2,5-4.4,6.8-7.4c1.8-3,3.1-6.3,3.9-9.8c0.8-3.6,1.3-7,1.3-10.2
		c0-2.2-0.3-4.3-0.9-6.2c-0.6-1.9-1.5-3.6-2.6-5.1c-1.2-1.5-2.6-2.6-4.4-3.5C171.8,364.9,169.7,364.5,167.4,364.5z"/>
        <path class="st0" d="M262.9,376.6c0-4.3-1.1-7.4-3.4-9.3c-2.3-1.9-5.6-2.8-10-2.8c-2.5,0-4.8,0.5-6.8,1.4c-2,0.9-3.7,2.2-5.2,3.8
		c-1.5,1.6-2.8,3.4-3.9,5.5c-1.1,2.1-1.9,4.3-2.6,6.6c-0.7,2.3-1.1,4.6-1.4,6.9c-0.3,2.3-0.4,4.5-0.4,6.6c0,2.2,0.2,4.2,0.7,6.1
		c0.5,1.9,1.3,3.6,2.4,5c1.1,1.4,2.5,2.6,4.3,3.4c1.8,0.8,3.9,1.2,6.4,1.2c2.2,0,4.2-0.4,5.9-1.1c1.8-0.7,3.3-1.7,4.6-3
		c1.3-1.3,2.5-2.7,3.4-4.3c0.9-1.6,1.7-3.3,2.2-5.1H279c-3,9.1-7.7,16.1-14,21.1c-6.3,5-14.1,7.5-23.5,7.5c-5.1,0-9.6-0.6-13.6-1.9
		c-4-1.3-7.4-3.2-10.2-5.8c-2.8-2.6-4.9-5.8-6.4-9.7c-1.5-3.9-2.2-8.5-2.2-13.8c0-6.2,0.9-12,2.7-17.5s4.5-10.3,8-14.4
		c3.5-4.1,7.8-7.4,12.9-9.8c5.1-2.4,10.9-3.6,17.4-3.6c4.4,0,8.6,0.5,12.5,1.5c3.9,1,7.3,2.6,10.3,4.8c2.9,2.2,5.3,5,7,8.4
		c1.7,3.4,2.7,7.5,2.8,12.3H262.9z"/>
        <path class="st0" d="M305.2,323.8h19.9l-7.4,36.1h0.3c0.8-1.1,1.9-2.2,3.2-3.4s3.1-2.3,5-3.4c2-1,4.3-1.9,6.9-2.6
		c2.6-0.7,5.6-1,8.8-1c7,0,12.2,1.7,15.8,5c3.6,3.3,5.4,8.2,5.4,14.5c0,0.7-0.1,1.7-0.2,2.8c-0.2,1.2-0.4,2.4-0.6,3.6
		c-0.2,1.2-0.5,2.4-0.7,3.5c-0.2,1.1-0.4,2-0.5,2.6l-9,42.6h-20l8.8-42.6c0.1-0.5,0.3-1.2,0.4-2c0.1-0.8,0.3-1.6,0.4-2.5
		s0.2-1.7,0.3-2.5c0.1-0.8,0.1-1.4,0.1-1.9c0-1.1-0.3-2.1-0.8-3c-0.5-0.9-1.3-1.7-2.2-2.3s-1.9-1.2-3.1-1.5
		c-1.1-0.4-2.3-0.5-3.4-0.5c-3,0-5.7,0.6-8,1.7c-2.3,1.2-4.3,2.7-5.9,4.6s-3,4-4,6.5s-1.9,4.9-2.4,7.4l-8.2,38.6h-20L305.2,323.8z"
        />
        <path class="st0"
              d="M385.5,351.4h20.1L390.1,424H370L385.5,351.4z M407.8,340.2h-20.1l3.7-16.4h20.1L407.8,340.2z"/>
        <path class="st0" d="M421.6,351.4h19.1l-2.3,10.2h0.3c6.5-8,15-12.1,25.4-12.1c7,0,12.2,1.7,15.8,5c3.6,3.3,5.4,8.2,5.4,14.5
		c0,0.7-0.1,1.7-0.2,2.8c-0.2,1.2-0.4,2.4-0.6,3.6c-0.2,1.2-0.5,2.4-0.7,3.5c-0.2,1.1-0.4,2-0.5,2.6l-9,42.6h-20l8.8-42.6
		c0.1-0.5,0.3-1.2,0.4-2s0.3-1.6,0.4-2.5s0.2-1.7,0.3-2.5c0.1-0.8,0.1-1.4,0.1-1.9c0-1.1-0.3-2.1-0.8-3c-0.5-0.9-1.3-1.7-2.2-2.3
		s-1.9-1.2-3.1-1.5c-1.1-0.4-2.3-0.5-3.4-0.5c-3,0-5.7,0.6-8,1.7c-2.3,1.2-4.3,2.7-5.9,4.6s-3,4-4,6.5s-1.9,4.9-2.4,7.4l-8.2,38.6
		h-20L421.6,351.4z"/>
        <path class="st0" d="M513.1,323.8H533l-7.4,36.1h0.3c0.8-1.1,1.9-2.2,3.2-3.4c1.4-1.2,3.1-2.3,5-3.4c2-1,4.3-1.9,6.9-2.6
		c2.6-0.7,5.6-1,8.8-1c7,0,12.2,1.7,15.8,5s5.4,8.2,5.4,14.5c0,0.7-0.1,1.7-0.2,2.8c-0.2,1.2-0.4,2.4-0.6,3.6
		c-0.2,1.2-0.5,2.4-0.7,3.5s-0.4,2-0.5,2.6l-9,42.6h-20l8.8-42.6c0.1-0.5,0.3-1.2,0.4-2c0.1-0.8,0.3-1.6,0.4-2.5
		c0.1-0.9,0.2-1.7,0.3-2.5c0.1-0.8,0.1-1.4,0.1-1.9c0-1.1-0.3-2.1-0.8-3s-1.3-1.7-2.2-2.3s-1.9-1.2-3.1-1.5
		c-1.1-0.4-2.3-0.5-3.4-0.5c-3,0-5.7,0.6-8,1.7c-2.3,1.2-4.3,2.7-5.9,4.6s-3,4-4,6.5c-1.1,2.4-1.9,4.9-2.4,7.4l-8.2,38.6h-20
		L513.1,323.8z"/>
        <path class="st0" d="M598.9,323.8h19.9l-7.4,36.1h0.3c0.8-1.1,1.9-2.2,3.2-3.4c1.4-1.2,3.1-2.3,5-3.4c2-1,4.3-1.9,6.9-2.6
		c2.6-0.7,5.6-1,8.8-1c7,0,12.2,1.7,15.8,5s5.4,8.2,5.4,14.5c0,0.7-0.1,1.7-0.2,2.8c-0.2,1.2-0.4,2.4-0.6,3.6s-0.5,2.4-0.7,3.5
		s-0.4,2-0.5,2.6l-9,42.6h-20l8.8-42.6c0.1-0.5,0.3-1.2,0.4-2s0.3-1.6,0.4-2.5c0.1-0.9,0.2-1.7,0.3-2.5c0.1-0.8,0.1-1.4,0.1-1.9
		c0-1.1-0.3-2.1-0.8-3s-1.3-1.7-2.2-2.3s-1.9-1.2-3.1-1.5c-1.1-0.4-2.3-0.5-3.4-0.5c-3,0-5.7,0.6-8,1.7c-2.3,1.2-4.3,2.7-5.9,4.6
		c-1.6,1.9-3,4-4,6.5s-1.9,4.9-2.4,7.4l-8.2,38.6h-20L598.9,323.8z"/>
        <path class="st0" d="M673.9,373.5c0.6-4.6,2-8.4,4.1-11.5c2.1-3.1,4.7-5.6,7.9-7.4c3.1-1.9,6.6-3.2,10.5-3.9
		c3.9-0.8,7.9-1.2,12-1.2c2.1,0,4.4,0.1,6.7,0.3c2.3,0.2,4.6,0.5,6.9,1c2.3,0.5,4.4,1.2,6.4,2.1c2,0.9,3.8,2,5.3,3.5
		c1.5,1.4,2.7,3.1,3.6,5.1c0.9,2,1.3,4.4,1.2,7.1c0,1.6-0.2,3.4-0.4,5.6c-0.3,2.2-0.7,4.4-1.1,6.6l-6.4,29.2
		c-0.2,0.6-0.3,1.4-0.4,2.2c-0.1,0.8-0.2,1.7-0.3,2.6c-0.1,0.9-0.1,1.8-0.2,2.7s-0.1,1.7-0.1,2.4c0,0.6,0.1,1.3,0.2,2.1
		c0.1,0.8,0.3,1.5,0.5,2.1h-20v-7.1c-1.4,1.6-2.9,2.9-4.6,4c-1.7,1.1-3.5,2.1-5.5,2.8s-3.9,1.3-5.9,1.7c-2,0.4-4.1,0.5-6.1,0.5
		c-4,0-7.4-0.5-10.4-1.6c-3-1.1-5.4-2.4-7.4-4.2c-2-1.7-3.4-3.8-4.4-6.1c-1-2.3-1.4-4.7-1.4-7.3c0-3.5,0.6-6.6,1.9-9.4
		c1.3-2.8,3.1-5.3,5.5-7.4c2.4-2.1,5.3-3.8,8.7-5.1c3.4-1.3,7.3-2.2,11.7-2.7c4.7-0.5,8.8-1,12.3-1.3c3.5-0.3,6.4-0.8,8.6-1.4
		c2.3-0.6,4-1.5,5.1-2.6c1.1-1.2,1.7-2.9,1.7-5.2c0-1.8-0.4-3.2-1.3-4.4c-0.9-1.1-1.9-2-3.2-2.7c-1.3-0.7-2.7-1.1-4.1-1.4
		s-2.8-0.4-4.1-0.4c-1.8,0-3.5,0.2-5.1,0.6s-3.1,1.1-4.4,2c-1.3,0.9-2.4,2-3.3,3.3s-1.5,2.9-1.9,4.8H673.9z M716,389.2
		c-1.2,0.7-2.5,1.3-3.9,1.7c-1.4,0.4-2.8,0.7-4.2,1c-1.4,0.2-2.9,0.4-4.4,0.5c-1.5,0.1-2.9,0.2-4.3,0.3c-1.9,0.2-3.8,0.5-5.6,0.9
		c-1.8,0.4-3.4,1-4.7,1.9c-1.4,0.9-2.5,2-3.3,3.4c-0.8,1.4-1.2,3.3-1.2,5.6c0,1.4,0.3,2.6,0.9,3.6c0.6,1,1.4,1.9,2.4,2.5
		c1,0.7,2.2,1.2,3.5,1.5c1.3,0.3,2.7,0.5,4.2,0.5c3.1,0,5.7-0.5,7.8-1.5c2.1-1,3.9-2.2,5.3-3.8c1.4-1.6,2.6-3.3,3.5-5.3
		c0.9-2,1.6-3.9,2.1-5.9L716,389.2z"/>
        <path class="st0" d="M759.6,351.4h19.1l-2.3,10.2h0.3c6.5-8,15-12.1,25.4-12.1c7,0,12.2,1.7,15.8,5s5.4,8.2,5.4,14.5
		c0,0.7-0.1,1.7-0.2,2.8c-0.2,1.2-0.4,2.4-0.6,3.6s-0.5,2.4-0.7,3.5s-0.4,2-0.5,2.6l-9,42.6h-20l8.8-42.6c0.1-0.5,0.3-1.2,0.4-2
		s0.3-1.6,0.4-2.5c0.1-0.9,0.2-1.7,0.3-2.5c0.1-0.8,0.1-1.4,0.1-1.9c0-1.1-0.3-2.1-0.8-3s-1.3-1.7-2.2-2.3s-1.9-1.2-3.1-1.5
		c-1.1-0.4-2.3-0.5-3.4-0.5c-3,0-5.7,0.6-8,1.7c-2.3,1.2-4.3,2.7-5.9,4.6c-1.6,1.9-3,4-4,6.5c-1.1,2.4-1.9,4.9-2.4,7.4l-8.2,38.6
		h-20L759.6,351.4z"/>
        <path class="st0" d="M900.3,420.3c-1.2,5.5-2.9,10.2-4.9,14.2s-4.7,7.2-7.9,9.7c-3.2,2.5-7,4.4-11.5,5.6c-4.5,1.2-9.7,1.8-15.7,1.8
		c-3.7,0-7.4-0.4-11.1-1.3c-3.7-0.8-7-2.2-10-4.1c-3-1.9-5.4-4.3-7.2-7.3c-1.8-3-2.8-6.7-2.8-11h20c-0.1,1.8,0.2,3.4,1,4.7
		c0.7,1.3,1.7,2.4,3,3.3s2.7,1.5,4.3,1.9c1.6,0.4,3.2,0.6,4.8,0.6c3.2,0,5.8-0.7,8-2c2.1-1.3,4-3.1,5.5-5.4c1.5-2.3,2.8-5,3.8-8
		c1.1-3.1,2.1-6.4,3-9.9l-0.3-0.3c-5.2,6.9-11.9,10.3-20,10.3c-4.3,0-8.2-0.7-11.7-2.1c-3.4-1.4-6.4-3.4-8.8-6
		c-2.4-2.6-4.3-5.7-5.6-9.4c-1.3-3.7-1.9-7.7-1.9-12.2c0-3.5,0.4-7.1,1.1-10.6c0.7-3.5,1.8-6.9,3.2-10.2c1.4-3.2,3.2-6.3,5.2-9.1
		c2.1-2.8,4.5-5.2,7.2-7.3c2.7-2.1,5.7-3.7,9.1-4.9c3.3-1.2,6.9-1.8,10.8-1.8c2.5,0,4.9,0.2,7.1,0.7c2.2,0.5,4.3,1.2,6.2,2.2
		c1.9,1,3.6,2.4,5.1,4s2.8,3.7,3.8,6.1h0.3l2.3-11.1h19.1L900.3,420.3z M874.7,364.5c-3.3,0-6.3,0.9-8.8,2.6c-2.5,1.8-4.7,4-6.4,6.7
		c-1.7,2.7-3,5.6-3.9,8.8c-0.9,3.2-1.3,6.3-1.3,9.2c0,2.1,0.3,4.2,0.8,6.1c0.5,1.9,1.3,3.6,2.4,5.1c1.1,1.5,2.5,2.6,4.2,3.5
		c1.7,0.9,3.7,1.3,6,1.3c3.6,0,6.7-0.9,9.4-2.6c2.7-1.7,4.9-3.9,6.6-6.6c1.7-2.7,3-5.7,3.9-8.9c0.9-3.2,1.3-6.4,1.3-9.5
		c0-2.3-0.3-4.4-0.9-6.3c-0.6-1.9-1.5-3.6-2.6-5s-2.7-2.5-4.5-3.3C879.2,364.9,877.1,364.5,874.7,364.5z"/>
    </g>
    <g>
        <path class="st4" d="M263.6,262.5H53.7c-9.8,0-17.8,7.9-17.8,17.8L17.2,446.7"/>
        <path class="st5" d="M97.4,304.6v-74.8c0-5.5,1.2-11.1,3.8-16.1c12.4-24.2,34.2-40.2,58.9-40.2c24.7,0,46.5,16,58.9,40.1
		c2.7,5.3,3.9,11.1,3.9,17v74"/>
        <circle class="st6" cx="97.4" cy="303.7" r="17.3"/>
        <circle class="st6" cx="222.8" cy="303.7" r="17.3"/>
    </g>
</svg>
