<?xml version="1.0" encoding="utf-8"?>
<!-- Generator: Adobe Illustrator 20.0.0, SVG Export Plug-In . SVG Version: 6.00 Build 0)  -->
<svg version="1.1" id="Layer_1" xmlns="http://www.w3.org/2000/svg" xmlns:xlink="http://www.w3.org/1999/xlink" x="0px" y="0px"
	 viewBox="0 0 932 624.1" style="enable-background:new 0 0 932 624.1;" xml:space="preserve">
<style type="text/css">
	.st0{fill:#FFFFFF;}
	.st1{fill:none;stroke:#FFFFFF;stroke-width:14.3423;stroke-miterlimit:10;}
	.st2{fill:none;stroke:#FFFFFF;stroke-width:9.5615;stroke-miterlimit:10;}
	.st3{fill:none;stroke:#FFFFFF;stroke-width:3.7869;stroke-miterlimit:10;}
</style>
<g>
	<g>
		<path class="st0" d="M1436,23.8c-0.1-3.2-1.1-5.6-2.9-7.4c-1.8-1.8-4.7-2.6-8.6-2.6c-1.8,0-3.4,0.1-4.9,0.4s-2.8,0.7-4,1.3
			c-1.2,0.6-2,1.4-2.6,2.3s-0.9,2.1-0.9,3.4c0,1.6,0.7,3,2.1,4.1c1.4,1.1,3.8,2.2,7.2,3.3l10.2,3.3c2.7,0.9,5.3,1.9,7.6,3.1
			c2.3,1.2,4.5,2.6,6.2,4.2c1.8,1.6,3.2,3.6,4.2,5.8c1,2.3,1.5,5,1.5,8.1c0,3-0.5,5.8-1.4,8.2c-1,2.5-2.3,4.6-3.9,6.5
			c-1.7,1.9-3.6,3.5-5.9,4.8s-4.7,2.4-7.3,3.3c-2.6,0.9-5.3,1.5-8.2,1.9s-5.7,0.6-8.5,0.6c-2.4,0-4.9-0.2-7.4-0.5s-4.9-0.9-7.3-1.6
			c-2.3-0.7-4.5-1.7-6.6-2.9c-2.1-1.2-3.8-2.7-5.4-4.4c-1.5-1.7-2.7-3.7-3.6-6c-0.9-2.3-1.3-4.8-1.3-7.7v-3h18.9v2.5
			c0,1.7,0.4,3.1,1.3,4.4s2,2.3,3.4,3.1c1.4,0.8,2.9,1.4,4.7,1.9c1.8,0.4,3.5,0.6,5.3,0.6c1.5,0,3.1-0.1,4.6-0.5
			c1.5-0.3,2.9-0.8,4.1-1.5c1.2-0.7,2.2-1.6,3-2.7c0.8-1.1,1.2-2.6,1.2-4.2c0-1.3-0.2-2.4-0.5-3.3c-0.3-0.9-0.8-1.6-1.5-2.2
			c-0.6-0.6-1.4-1.1-2.3-1.5s-1.9-0.8-3-1.2l-15.7-5c-2.5-0.8-4.8-1.8-6.8-2.7c-2-1-3.7-2.2-5-3.6c-1.4-1.4-2.4-3.2-3.1-5.2
			s-1.1-4.5-1.1-7.4s0.5-5.5,1.4-7.8c1-2.3,2.3-4.3,3.9-6.1c1.6-1.8,3.5-3.2,5.7-4.4c2.2-1.2,4.5-2.2,6.9-3c2.4-0.8,4.9-1.3,7.5-1.7
			c2.6-0.4,5-0.5,7.4-0.5c4.1,0,7.9,0.3,11.6,1c3.7,0.7,6.9,1.9,9.7,3.6c2.8,1.8,5,4.2,6.7,7.2c1.7,3,2.4,7,2.4,11.7L1436,23.8
			L1436,23.8z"/>
		<path class="st0" d="M1472.8,2.1h19.7l-2,9.2l0.3,0.3c1.2-2,2.6-3.7,4.2-5.1c1.6-1.4,3.4-2.6,5.3-3.5s4-1.6,6.2-2.1
			c2.2-0.4,4.4-0.7,6.6-0.7c4.4,0,8.4,0.7,11.9,2.1s6.4,3.3,8.8,5.9c2.4,2.5,4.2,5.6,5.5,9.2s1.9,7.6,1.9,12c0,4.1-0.4,8.1-1.1,12.1
			c-0.7,4-1.8,7.8-3.3,11.4s-3.3,7-5.5,10.1c-2.2,3.1-4.8,5.8-7.8,8.1c-3,2.3-6.4,4.1-10.1,5.4c-3.8,1.3-7.9,1.9-12.5,1.9
			c-2.1,0-4.3-0.2-6.4-0.7s-4.2-1.2-6-2.2c-1.9-1-3.5-2.2-5-3.7s-2.6-3.3-3.4-5.3h-0.4l-7.8,36h-20.4L1472.8,2.1z M1506.3,15.5
			c-2.5,0-4.8,0.5-6.9,1.4c-2.1,0.9-4,2.2-5.6,3.9c-1.7,1.6-3.1,3.5-4.3,5.6c-1.2,2.1-2.3,4.4-3.1,6.7c-0.8,2.3-1.4,4.7-1.8,7.1
			c-0.4,2.4-0.6,4.6-0.6,6.7c0,2.4,0.3,4.6,0.9,6.5c0.6,2,1.5,3.7,2.7,5.1c1.2,1.4,2.7,2.5,4.6,3.3c1.8,0.8,4,1.2,6.4,1.2
			c3.8,0,7.1-1,9.9-3c2.8-2,5.1-4.5,6.9-7.6c1.8-3.1,3.2-6.4,4-10c0.9-3.6,1.3-7.1,1.3-10.4c0-2.2-0.3-4.4-0.9-6.3
			c-0.6-2-1.5-3.7-2.7-5.2c-1.2-1.5-2.7-2.7-4.5-3.6C1510.8,16,1508.7,15.5,1506.3,15.5z"/>
		<path class="st0" d="M1603.8,27.8c0-4.4-1.2-7.5-3.5-9.4c-2.3-1.9-5.7-2.9-10.2-2.9c-2.6,0-4.9,0.5-6.9,1.4c-2,1-3.8,2.2-5.4,3.9
			c-1.5,1.6-2.9,3.5-4,5.6s-2,4.4-2.7,6.7c-0.7,2.3-1.2,4.7-1.5,7.1c-0.3,2.4-0.5,4.6-0.5,6.7c0,2.2,0.2,4.3,0.7,6.3
			c0.5,1.9,1.3,3.6,2.4,5.1s2.6,2.6,4.4,3.5c1.8,0.8,4,1.3,6.5,1.3c2.2,0,4.3-0.4,6.1-1.1c1.8-0.7,3.4-1.8,4.7-3
			c1.3-1.2,2.5-2.8,3.5-4.4c1-1.7,1.7-3.4,2.3-5.2h20.5c-3.1,9.2-7.8,16.4-14.2,21.5s-14.4,7.6-24,7.6c-5.2,0-9.8-0.6-13.9-1.9
			c-4.1-1.3-7.5-3.2-10.4-5.9c-2.9-2.7-5-6-6.5-9.9c-1.5-4-2.3-8.7-2.3-14.1c0-6.3,0.9-12.3,2.8-17.9c1.9-5.6,4.6-10.5,8.2-14.7
			s7.9-7.6,13.1-10c5.2-2.5,11.1-3.7,17.8-3.7c4.5,0,8.8,0.5,12.8,1.5c4,1,7.5,2.7,10.5,4.9c3,2.2,5.4,5.1,7.2,8.6
			c1.8,3.5,2.7,7.7,2.9,12.6h-20.4V27.8z"/>
		<path class="st0" d="M1647-26.1h20.3l-7.6,36.8h0.3c0.8-1.1,1.9-2.2,3.3-3.5c1.4-1.3,3.1-2.4,5.1-3.4c2-1.1,4.4-1.9,7.1-2.6
			c2.7-0.7,5.7-1,9-1c7.1,0,12.5,1.7,16.1,5.1c3.7,3.4,5.5,8.3,5.5,14.8c0,0.7-0.1,1.7-0.2,2.9c-0.2,1.2-0.4,2.4-0.6,3.6
			c-0.2,1.2-0.5,2.4-0.7,3.6c-0.2,1.1-0.4,2-0.6,2.6l-9.2,43.5h-20.4l9-43.5c0.1-0.5,0.3-1.2,0.4-2s0.3-1.7,0.4-2.6s0.2-1.7,0.3-2.5
			c0.1-0.8,0.1-1.4,0.1-2c0-1.1-0.3-2.1-0.8-3s-1.3-1.7-2.2-2.4c-0.9-0.7-2-1.2-3.2-1.6c-1.2-0.4-2.3-0.6-3.5-0.6
			c-3.1,0-5.8,0.6-8.2,1.8s-4.4,2.7-6.1,4.7c-1.7,1.9-3.1,4.1-4.1,6.6c-1.1,2.5-1.9,5-2.5,7.6l-8.3,39.4h-20.4L1647-26.1z"/>
		<path class="st0" d="M1729,2.1h20.5l-15.8,74.2h-20.5L1729,2.1z M1751.8-9.4h-20.6l3.8-16.7h20.5L1751.8-9.4z"/>
		<path class="st0" d="M1765.8,2.1h19.5l-2.3,10.4h0.3c6.7-8.2,15.3-12.3,26-12.3c7.1,0,12.5,1.7,16.1,5.1c3.7,3.4,5.5,8.3,5.5,14.8
			c0,0.7-0.1,1.7-0.2,2.9c-0.2,1.2-0.4,2.4-0.6,3.6c-0.2,1.2-0.5,2.4-0.7,3.6c-0.2,1.1-0.4,2-0.6,2.6l-9.2,43.5h-20.4l9-43.5
			c0.1-0.5,0.3-1.2,0.4-2c0.1-0.8,0.3-1.7,0.4-2.6s0.2-1.7,0.3-2.5s0.1-1.4,0.1-2c0-1.1-0.3-2.1-0.8-3s-1.3-1.7-2.2-2.4
			c-0.9-0.7-2-1.2-3.2-1.6c-1.2-0.4-2.3-0.6-3.5-0.6c-3.1,0-5.8,0.6-8.2,1.8s-4.4,2.7-6.1,4.7c-1.7,1.9-3.1,4.1-4.1,6.6
			c-1.1,2.5-1.9,5-2.5,7.6l-8.3,39.4h-20.4L1765.8,2.1z"/>
		<path class="st0" d="M1859.3-26.1h20.3l-7.6,36.8h0.3c0.8-1.1,1.9-2.2,3.3-3.5c1.4-1.3,3.1-2.4,5.1-3.4c2-1.1,4.4-1.9,7.1-2.6
			c2.7-0.7,5.7-1,9-1c7.1,0,12.5,1.7,16.1,5.1c3.7,3.4,5.5,8.3,5.5,14.8c0,0.7-0.1,1.7-0.2,2.9c-0.2,1.2-0.4,2.4-0.6,3.6
			c-0.2,1.2-0.5,2.4-0.7,3.6c-0.2,1.1-0.4,2-0.6,2.6l-9.2,43.5h-20.4l9-43.5c0.1-0.5,0.3-1.2,0.4-2c0.1-0.8,0.3-1.7,0.4-2.6
			c0.1-0.9,0.2-1.7,0.3-2.5s0.1-1.4,0.1-2c0-1.1-0.3-2.1-0.8-3s-1.3-1.7-2.2-2.4c-0.9-0.7-2-1.2-3.2-1.6c-1.2-0.4-2.3-0.6-3.5-0.6
			c-3.1,0-5.8,0.6-8.2,1.8c-2.4,1.2-4.4,2.7-6.1,4.7c-1.7,1.9-3.1,4.1-4.1,6.6c-1.1,2.5-1.9,5-2.5,7.6l-8.3,39.4h-20.4L1859.3-26.1z
			"/>
		<path class="st0" d="M1946.9-26.1h20.3l-7.6,36.8h0.3c0.8-1.1,1.9-2.2,3.3-3.5c1.4-1.2,3.1-2.4,5.1-3.4c2-1.1,4.4-1.9,7.1-2.6
			s5.7-1,9-1c7.1,0,12.5,1.7,16.1,5.1s5.5,8.3,5.5,14.8c0,0.7-0.1,1.7-0.2,2.9c-0.2,1.2-0.4,2.4-0.6,3.6s-0.5,2.4-0.7,3.6
			c-0.2,1.1-0.4,2-0.6,2.6l-9.2,43.5h-20.4l9-43.5c0.1-0.5,0.3-1.2,0.4-2s0.3-1.7,0.4-2.6s0.2-1.7,0.3-2.5s0.1-1.4,0.1-2
			c0-1.1-0.3-2.1-0.8-3s-1.3-1.7-2.2-2.4s-2-1.2-3.2-1.6c-1.2-0.4-2.3-0.6-3.5-0.6c-3.1,0-5.8,0.6-8.2,1.8c-2.4,1.2-4.4,2.7-6.1,4.7
			c-1.7,1.9-3.1,4.1-4.1,6.6c-1.1,2.5-1.9,5-2.5,7.6l-8.3,39.4h-20.4L1946.9-26.1z"/>
		<path class="st0" d="M2023.5,24.7c0.7-4.7,2.1-8.6,4.2-11.7c2.2-3.2,4.8-5.7,8-7.6c3.2-1.9,6.7-3.2,10.7-4c3.9-0.8,8-1.2,12.2-1.2
			c2.2,0,4.5,0.1,6.9,0.3c2.4,0.2,4.7,0.5,7,1c2.3,0.5,4.5,1.2,6.6,2.1c2.1,0.9,3.9,2.1,5.4,3.5c1.6,1.4,2.8,3.2,3.7,5.2
			c0.9,2.1,1.3,4.5,1.3,7.2c0,1.6-0.2,3.5-0.5,5.7c-0.3,2.2-0.7,4.5-1.2,6.8l-6.6,29.8c-0.2,0.7-0.3,1.4-0.5,2.3
			c-0.1,0.9-0.2,1.8-0.3,2.7c-0.1,0.9-0.1,1.8-0.2,2.7c-0.1,0.9-0.1,1.7-0.1,2.4c0,0.7,0.1,1.4,0.2,2.1c0.1,0.8,0.3,1.5,0.5,2.1
			h-20.4v-7.3c-1.4,1.6-3,3-4.7,4.1c-1.7,1.2-3.6,2.1-5.6,2.9s-4,1.3-6.1,1.7s-4.2,0.6-6.3,0.6c-4.1,0-7.6-0.5-10.6-1.6
			s-5.5-2.5-7.5-4.3s-3.5-3.8-4.5-6.2c-1-2.4-1.5-4.8-1.5-7.5c0-3.5,0.7-6.8,2-9.6c1.3-2.9,3.2-5.4,5.6-7.5s5.4-3.9,8.9-5.3
			s7.5-2.3,11.9-2.8c4.8-0.6,9-1,12.5-1.3c3.5-0.3,6.5-0.8,8.8-1.4c2.3-0.6,4.1-1.5,5.2-2.7c1.1-1.2,1.7-3,1.7-5.4
			c0-1.8-0.4-3.3-1.3-4.5c-0.9-1.2-2-2.1-3.3-2.8c-1.3-0.7-2.7-1.1-4.2-1.4s-2.9-0.4-4.2-0.4c-1.8,0-3.6,0.2-5.3,0.7
			c-1.7,0.4-3.2,1.1-4.5,2c-1.3,0.9-2.5,2-3.4,3.4s-1.6,3-1.9,4.9h-18.6V24.7z M2066.5,40.7c-1.3,0.7-2.6,1.3-4,1.8
			c-1.4,0.4-2.8,0.7-4.3,1c-1.5,0.2-3,0.4-4.4,0.5c-1.5,0.1-3,0.2-4.4,0.3c-2,0.2-3.9,0.5-5.7,0.9c-1.8,0.4-3.4,1-4.8,1.9
			c-1.4,0.9-2.5,2.1-3.4,3.5c-0.8,1.4-1.3,3.3-1.3,5.7c0,1.4,0.3,2.6,0.9,3.7s1.4,1.9,2.5,2.6c1,0.7,2.2,1.2,3.6,1.5
			c1.3,0.4,2.7,0.5,4.2,0.5c3.1,0,5.8-0.5,7.9-1.5c2.2-1,4-2.3,5.5-3.9s2.7-3.4,3.5-5.4c0.9-2,1.6-4,2.2-6L2066.5,40.7z"/>
		<path class="st0" d="M2111,2.1h19.5l-2.3,10.4h0.3c6.7-8.2,15.3-12.3,26-12.3c7.1,0,12.5,1.7,16.1,5.1c3.6,3.4,5.5,8.3,5.5,14.8
			c0,0.7-0.1,1.7-0.2,2.9c-0.2,1.2-0.4,2.4-0.6,3.6s-0.5,2.4-0.7,3.6c-0.2,1.1-0.4,2-0.6,2.6l-9.2,43.5h-20.4l9-43.5
			c0.1-0.5,0.3-1.2,0.4-2c0.1-0.8,0.3-1.7,0.4-2.6c0.1-0.9,0.2-1.7,0.3-2.5c0.1-0.8,0.1-1.4,0.1-2c0-1.1-0.3-2.1-0.8-3
			s-1.3-1.7-2.2-2.4c-0.9-0.7-2-1.2-3.2-1.6c-1.2-0.4-2.3-0.6-3.5-0.6c-3.1,0-5.8,0.6-8.2,1.8c-2.4,1.2-4.4,2.7-6.1,4.7
			c-1.7,1.9-3.1,4.1-4.1,6.6c-1.1,2.5-1.9,5-2.5,7.6l-8.3,39.4h-20.4L2111,2.1z"/>
		<path class="st0" d="M2254.6,72.4c-1.3,5.6-2.9,10.4-5,14.5c-2.1,4-4.8,7.4-8.1,9.9c-3.3,2.6-7.2,4.5-11.7,5.7
			c-4.6,1.2-9.9,1.8-16,1.8c-3.8,0-7.6-0.4-11.3-1.3c-3.8-0.9-7.2-2.3-10.2-4.2c-3-1.9-5.5-4.4-7.4-7.5c-1.9-3.1-2.8-6.8-2.8-11.3
			h20.4c-0.1,1.9,0.2,3.5,1,4.8c0.8,1.4,1.8,2.5,3,3.3c1.3,0.9,2.7,1.5,4.3,1.9c1.6,0.4,3.3,0.6,4.9,0.6c3.2,0,5.9-0.7,8.1-2
			s4-3.2,5.6-5.5c1.5-2.3,2.8-5.1,3.9-8.2s2.1-6.5,3.1-10.2l-0.3-0.3c-5.3,7-12.1,10.5-20.4,10.5c-4.4,0-8.4-0.7-11.9-2.2
			s-6.5-3.5-9-6.1c-2.5-2.6-4.4-5.8-5.7-9.6c-1.3-3.7-2-7.9-2-12.5c0-3.6,0.4-7.2,1.1-10.8c0.7-3.6,1.8-7.1,3.3-10.4
			c1.4-3.3,3.2-6.4,5.4-9.2c2.1-2.8,4.6-5.3,7.3-7.4s5.9-3.8,9.2-5c3.3-1.2,7.1-1.8,11-1.8c2.6,0,5,0.2,7.3,0.7s4.4,1.2,6.3,2.3
			c1.9,1.1,3.7,2.4,5.2,4.1s2.8,3.8,3.9,6.2h0.3l2.3-11.3h19.5L2254.6,72.4z M2228.5,15.5c-3.4,0-6.4,0.9-9,2.7
			c-2.6,1.8-4.8,4.1-6.5,6.8c-1.7,2.8-3.1,5.8-4,9c-0.9,3.3-1.3,6.4-1.3,9.4c0,2.2,0.3,4.3,0.8,6.2c0.5,2,1.4,3.7,2.5,5.2
			c1.1,1.5,2.5,2.7,4.3,3.6s3.8,1.3,6.2,1.3c3.6,0,6.8-0.9,9.6-2.6c2.7-1.8,5-4,6.8-6.8c1.8-2.8,3.1-5.8,4-9.1
			c0.9-3.3,1.3-6.6,1.3-9.7c0-2.3-0.3-4.5-0.9-6.4c-0.6-2-1.5-3.7-2.7-5.1c-1.2-1.4-2.7-2.5-4.6-3.3
			C2233.1,15.9,2230.9,15.5,2228.5,15.5z"/>
	</g>
	<g>
		<path class="st1" d="M1604.5-88.7h-214.3c-10,0-18.1,8.1-18.1,18.1l-19.1,170"/>
		<path class="st2" d="M1434.8-45.6V-122c0-5.7,1.2-11.3,3.8-16.4c12.7-24.7,34.9-41.1,60.2-41.1c25.2,0,47.4,16.3,60.1,41
			c2.8,5.4,4,11.3,4,17.3v75.6"/>
		<circle class="st3" cx="1434.8" cy="-46.6" r="17.7"/>
		<circle class="st3" cx="1562.9" cy="-46.6" r="17.7"/>
	</g>
</g>
</svg>
