<svg width="32" height="32" viewBox="0 0 32 32" fill="none" xmlns="http://www.w3.org/2000/svg">
<mask id="mask0" mask-type="alpha" maskUnits="userSpaceOnUse" x="1" y="2" width="27" height="28">
<path fill-rule="evenodd" clip-rule="evenodd" d="M9.33334 24.0001C7.86668 24.0001 6.68001 25.2001 6.68001 26.6667C6.68001 28.1334 7.86668 29.3334 9.33334 29.3334C10.8 29.3334 12 28.1334 12 26.6667C12 25.2001 10.8 24.0001 9.33334 24.0001ZM1.33334 2.66675V5.33341H4.00001L8.80001 15.4534L7.00001 18.7201C6.78668 19.0934 6.66668 19.5334 6.66668 20.0001C6.66668 21.4667 7.86668 22.6667 9.33334 22.6667H25.3333V20.0001H9.89334C9.70668 20.0001 9.56001 19.8534 9.56001 19.6667L9.60001 19.5067L10.8 17.3334H20.7333C21.7333 17.3334 22.6133 16.7867 23.0667 15.9601L27.84 7.30675C27.9467 7.12008 28 6.89341 28 6.66675C28 5.93341 27.4 5.33341 26.6667 5.33341H6.94668L5.69334 2.66675H1.33334ZM22.6667 24.0001C21.2 24.0001 20.0133 25.2001 20.0133 26.6667C20.0133 28.1334 21.2 29.3334 22.6667 29.3334C24.1333 29.3334 25.3333 28.1334 25.3333 26.6667C25.3333 25.2001 24.1333 24.0001 22.6667 24.0001Z" fill="white"/>
</mask>
<g mask="url(#mask0)">
<rect x="-17.3333" y="-17.3333" width="66.6667" height="66.6667" fill="#2C2B2B"/>
<mask id="mask1" mask-type="alpha" maskUnits="userSpaceOnUse" x="-18" y="-18" width="68" height="68">
<rect x="-17.3333" y="-17.3333" width="66.6667" height="66.6667" fill="white"/>
</mask>
<g mask="url(#mask1)">
</g>
</g>
</svg>
