<svg width="152" height="46" viewBox="0 0 152 46" fill="none" xmlns="http://www.w3.org/2000/svg">
<rect x="1.07186" y="1.27432" width="150.001" height="44.3" rx="7.65" stroke="black" stroke-width="0.7"/>
<path fill-rule="evenodd" clip-rule="evenodd" d="M54.9962 26.8328V28.89H59.9333C59.8559 29.8589 59.4531 30.7732 58.7904 31.4842C57.7916 32.5016 56.4094 33.0496 54.9847 32.9928C51.9551 32.9928 49.499 30.5368 49.499 27.5071C49.499 24.4774 51.9551 22.0214 54.9847 22.0214C56.3765 21.9987 57.7205 22.5289 58.7219 23.4957L60.1733 22.0442C58.8075 20.6612 56.9398 19.8903 54.9962 19.9071C52.2293 19.7994 49.6252 21.2142 48.2097 23.594C46.7942 25.9739 46.7942 28.9375 48.2097 31.3173C49.6252 33.6972 52.2293 35.1119 54.9962 35.0042C56.9753 35.0937 58.8964 34.3227 60.2647 32.89C61.4621 31.5744 62.1014 29.8451 62.0476 28.0671C62.0513 27.6339 62.013 27.2015 61.9333 26.7757L54.9962 26.8328ZM67.6704 25.3357C64.9894 25.342 62.8205 27.5194 62.8247 30.2004C62.8289 32.8815 65.0046 35.052 67.6857 35.0499C70.3667 35.0478 72.539 32.8739 72.539 30.1928C72.5578 28.895 72.049 27.6451 71.129 26.7294C70.209 25.8137 68.9568 25.3108 67.659 25.3357H67.6704ZM73.4762 30.208C73.4678 27.5285 75.6309 25.3483 78.3104 25.3357C79.6082 25.3108 80.8605 25.8137 81.7805 26.7294C82.7004 27.6451 83.2093 28.895 83.1904 30.1928C83.1904 32.8724 81.0204 35.0457 78.3409 35.0499C75.6613 35.0541 73.4846 32.8875 73.4762 30.208ZM75.4442 31.471C75.9661 32.5635 77.1027 33.2259 78.3104 33.1414C79.0685 33.1238 79.7873 32.8008 80.3037 32.2456C80.8202 31.6904 81.0905 30.9502 81.0533 30.1928C81.0504 28.9821 80.3076 27.8963 79.1804 27.4546C78.0531 27.013 76.7704 27.3053 75.9458 28.1917C75.1212 29.0782 74.9223 30.3786 75.4442 31.471ZM64.7966 31.4798C65.3221 32.5715 66.4621 33.2306 67.6704 33.1414H67.659C68.4171 33.1238 69.1359 32.8008 69.6523 32.2456C70.1688 31.6904 70.4391 30.9502 70.4019 30.1928C70.3986 28.9812 69.6544 27.8949 68.5257 27.4542C67.397 27.0135 66.1136 27.3082 65.2902 28.197C64.4668 29.0859 64.271 30.388 64.7966 31.4798ZM102.619 25.3357C104.514 25.4055 106.169 26.6376 106.779 28.4328L107.019 28.9471L100.516 31.6328C100.924 32.561 101.857 33.1457 102.87 33.1071C103.849 33.1096 104.756 32.5973 105.259 31.7585L106.916 32.9014C106.014 34.2516 104.494 35.0587 102.87 35.05C101.58 35.0689 100.337 34.5621 99.4271 33.646C98.5175 32.73 98.0195 31.4834 98.0476 30.1928C97.9686 28.9317 98.4151 27.6941 99.2812 26.774C100.147 25.8539 101.355 25.3332 102.619 25.3357ZM100.15 30.0557C100.104 29.3416 100.346 28.6387 100.824 28.1055C101.301 27.5723 101.973 27.2536 102.688 27.2214C103.441 27.1717 104.152 27.5765 104.493 28.25L100.15 30.0557ZM97.0076 34.7642H94.8704V20.4785H97.0076V34.7642ZM91.3733 26.4214H91.2933C90.6418 25.693 89.7105 25.2773 88.7333 25.2785C86.1392 25.4043 84.1005 27.5442 84.1005 30.1414C84.1005 32.7386 86.1392 34.8785 88.7333 35.0042C89.7137 35.0207 90.651 34.6023 91.2933 33.8614H91.3619V34.5585C91.3619 36.4214 90.3676 37.4157 88.7676 37.4157C87.6776 37.3902 86.7113 36.7083 86.3219 35.69L84.459 36.4671C85.1764 38.212 86.881 39.3469 88.7676 39.3357C91.2704 39.3357 93.339 37.8614 93.339 34.2728V25.6214H91.3733V26.4214ZM88.924 33.1411L88.9276 33.1414H88.9162L88.924 33.1411ZM90.8498 32.2246C90.3594 32.7796 89.6639 33.1105 88.924 33.1411C87.3976 33.0047 86.2274 31.7257 86.2274 30.1928C86.2274 28.6588 87.3995 27.3789 88.9276 27.2442C89.666 27.2821 90.3579 27.6166 90.8463 28.1717C91.3347 28.7268 91.5783 29.4556 91.5219 30.1928C91.5849 30.9334 91.3421 31.6676 90.8498 32.2246ZM116.79 20.4785H111.682V34.7642H113.819V29.3471H116.802C118.462 29.4664 120.05 28.6483 120.916 27.2271C121.783 25.8059 121.783 24.0197 120.916 22.5986C120.05 21.1774 118.462 20.3593 116.802 20.4785H116.79ZM113.808 27.3357H116.79L116.836 27.37C118.19 27.37 119.288 26.2724 119.288 24.9185C119.288 23.5646 118.19 22.4671 116.836 22.4671H113.808V27.3357ZM129.968 25.2785C128.378 25.1835 126.883 26.0409 126.162 27.4614L128.059 28.25C128.441 27.5456 129.203 27.1332 130.002 27.1985C130.55 27.1345 131.101 27.2934 131.53 27.6393C131.96 27.9853 132.233 28.4895 132.288 29.0385V29.1871C131.601 28.8237 130.836 28.6352 130.059 28.6385C128.013 28.6385 125.945 29.7814 125.945 31.85C125.986 32.7411 126.385 33.5778 127.052 34.1697C127.72 34.7617 128.598 35.0586 129.488 34.9928C130.584 35.0715 131.636 34.5456 132.23 33.6214H132.299V34.7642H134.356V29.2671C134.356 26.7642 132.459 25.3128 130.025 25.3128L129.968 25.2785ZM128.036 31.8957C128.036 32.7528 129.008 33.1071 129.705 33.1071L129.762 33.1414C131.049 33.11 132.117 32.135 132.265 30.8557C131.672 30.5247 131.001 30.3589 130.322 30.3757C129.248 30.3757 128.036 30.7528 128.036 31.8957ZM141.853 25.6214L139.408 31.8157H139.339L136.802 25.6214H134.516L138.322 34.2842L136.15 39.0957H138.379L144.23 25.6214H141.853ZM124.779 34.7642H122.642V20.4785H124.779V34.7642Z" fill="#090E18"/>
<path fill-rule="evenodd" clip-rule="evenodd" d="M79.5333 9.35859C78.185 10.7857 78.185 13.0171 79.5333 14.4443C80.9242 15.8274 83.171 15.8274 84.5619 14.4443C85.9159 13.0194 85.9159 10.7835 84.5619 9.35859C83.8967 8.68858 82.9917 8.31177 82.0476 8.31177C81.1035 8.31177 80.1984 8.68858 79.5333 9.35859ZM53.7733 14.4672C54.3599 13.8547 54.6697 13.0286 54.6304 12.1814C54.6305 12.009 54.6152 11.8369 54.5847 11.6672H51.259V12.49H53.739C53.7221 13.0083 53.5192 13.5032 53.1676 13.8843C52.3842 14.6415 51.2223 14.8531 50.2224 14.4206C49.2224 13.9881 48.5808 12.9965 48.5961 11.9072C48.5713 11.1863 48.8412 10.4863 49.3436 9.9688C49.8461 9.45126 50.5377 9.16076 51.259 9.1643C51.9766 9.12509 52.6708 9.42565 53.1333 9.97573L53.739 9.37002C53.4464 9.03351 53.0783 8.77111 52.6647 8.6043C52.2205 8.41421 51.7422 8.31698 51.259 8.31859C50.3111 8.29746 49.3968 8.66982 48.7333 9.34716C47.7122 10.375 47.4067 11.9147 47.9581 13.2545C48.5095 14.5943 49.8102 15.473 51.259 15.4843C52.2036 15.5179 53.1178 15.1481 53.7733 14.4672ZM56.779 9.3243H59.8647V8.47859H55.8647V15.3357H59.8647V14.49H56.779V12.3186H59.5904V11.4957H56.779V9.3243ZM63.6133 15.3357H62.7333V9.3243H60.8133V8.47859H65.579V9.3243H63.6133V15.3357ZM69.819 8.47859H68.939V15.3357H69.819V8.47859ZM73.7276 15.3357H72.8476V9.3243H70.9276V8.47859H75.6361V9.3243H73.7276V15.3357ZM83.9104 13.8729C84.9221 12.7576 84.9221 11.0567 83.9104 9.94144C82.8803 8.91566 81.2148 8.91566 80.1847 9.94144C79.1731 11.0567 79.1731 12.7576 80.1847 13.8729C81.2148 14.8987 82.8803 14.8987 83.9104 13.8729ZM87.8876 8.47859H86.8133V15.3357H87.7047V9.74716L91.1904 15.3357H92.1047V8.47859H91.2247V13.8157L87.8876 8.47859Z" fill="#090E18"/>
<path d="M79.5333 14.4443L79.3515 14.6161L79.357 14.6216L79.5333 14.4443ZM79.5333 9.35859L79.3558 9.1824L79.3516 9.1869L79.5333 9.35859ZM84.5619 14.4443L84.7382 14.6216L84.7431 14.6165L84.5619 14.4443ZM84.5619 9.35859L84.7431 9.18633L84.7393 9.18246L84.5619 9.35859ZM54.6304 12.1814L54.3802 12.1813L54.3807 12.193L54.6304 12.1814ZM53.7733 14.4672L53.9534 14.6405L53.9538 14.6401L53.7733 14.4672ZM54.5847 11.6672L54.8308 11.623L54.7938 11.4172H54.5847V11.6672ZM51.259 11.6672V11.4172H51.009V11.6672H51.259ZM51.259 12.49H51.009V12.74H51.259V12.49ZM53.739 12.49L53.9889 12.4982L53.9973 12.24H53.739V12.49ZM53.1676 13.8843L53.3413 14.0641L53.3465 14.0591L53.3513 14.0538L53.1676 13.8843ZM50.2224 14.4206L50.1231 14.6501L50.1231 14.6501L50.2224 14.4206ZM48.5961 11.9072L48.8464 11.9107L48.846 11.8985L48.5961 11.9072ZM49.3436 9.9688L49.1642 9.79466L49.1642 9.79466L49.3436 9.9688ZM51.259 9.1643L51.2578 9.4143L51.2652 9.41433L51.2726 9.41393L51.259 9.1643ZM53.1333 9.97573L52.9419 10.1366L53.1173 10.3452L53.3101 10.1525L53.1333 9.97573ZM53.739 9.37002L53.9158 9.54679L54.0806 9.38193L53.9277 9.20598L53.739 9.37002ZM52.6647 8.6043L52.5663 8.83419L52.5712 8.83615L52.6647 8.6043ZM51.259 8.31859L51.2534 8.56861L51.2598 8.56859L51.259 8.31859ZM48.7333 9.34716L48.9106 9.52336L48.9119 9.5221L48.7333 9.34716ZM51.259 15.4843L51.2679 15.2344L51.261 15.2343L51.259 15.4843ZM59.8647 9.3243V9.5743H60.1147V9.3243H59.8647ZM56.779 9.3243V9.0743H56.529V9.3243H56.779ZM59.8647 8.47859H60.1147V8.22859H59.8647V8.47859ZM55.8647 8.47859V8.22859H55.6147V8.47859H55.8647ZM55.8647 15.3357H55.6147V15.5857H55.8647V15.3357ZM59.8647 15.3357V15.5857H60.1147V15.3357H59.8647ZM59.8647 14.49H60.1147V14.24H59.8647V14.49ZM56.779 14.49H56.529V14.74H56.779V14.49ZM56.779 12.3186V12.0686H56.529V12.3186H56.779ZM59.5904 12.3186V12.5686H59.8404V12.3186H59.5904ZM59.5904 11.4957H59.8404V11.2457H59.5904V11.4957ZM56.779 11.4957H56.529V11.7457H56.779V11.4957ZM62.7333 15.3357H62.4833V15.5857H62.7333V15.3357ZM63.6133 15.3357V15.5857H63.8633V15.3357H63.6133ZM62.7333 9.3243H62.9833V9.0743H62.7333V9.3243ZM60.8133 9.3243H60.5633V9.5743H60.8133V9.3243ZM60.8133 8.47859V8.22859H60.5633V8.47859H60.8133ZM65.579 8.47859H65.829V8.22859H65.579V8.47859ZM65.579 9.3243V9.5743H65.829V9.3243H65.579ZM63.6133 9.3243V9.0743H63.3633V9.3243H63.6133ZM68.939 8.47859V8.22859H68.689V8.47859H68.939ZM69.819 8.47859H70.069V8.22859H69.819V8.47859ZM68.939 15.3357H68.689V15.5857H68.939V15.3357ZM69.819 15.3357V15.5857H70.069V15.3357H69.819ZM72.8476 15.3357H72.5976V15.5857H72.8476V15.3357ZM73.7276 15.3357V15.5857H73.9776V15.3357H73.7276ZM72.8476 9.3243H73.0976V9.0743H72.8476V9.3243ZM70.9276 9.3243H70.6776V9.5743H70.9276V9.3243ZM70.9276 8.47859V8.22859H70.6776V8.47859H70.9276ZM75.6361 8.47859H75.8861V8.22859H75.6361V8.47859ZM75.6361 9.3243V9.5743H75.8861V9.3243H75.6361ZM73.7276 9.3243V9.0743H73.4776V9.3243H73.7276ZM83.9104 9.94144L84.0958 9.77326L84.0868 9.7643L83.9104 9.94144ZM83.9104 13.8729L84.0871 14.0502L84.0956 14.0408L83.9104 13.8729ZM80.1847 9.94144L80.0081 9.76407L79.9995 9.77348L80.1847 9.94144ZM80.1847 13.8729L79.9993 14.0411L80.0083 14.05L80.1847 13.8729ZM86.8133 8.47859V8.22859H86.5633V8.47859H86.8133ZM87.8876 8.47859L88.0995 8.34605L88.0261 8.22859H87.8876V8.47859ZM86.8133 15.3357H86.5633V15.5857H86.8133V15.3357ZM87.7047 15.3357V15.5857H87.9547V15.3357H87.7047ZM87.7047 9.74716L87.9168 9.61485L87.4547 8.87394V9.74716H87.7047ZM91.1904 15.3357L90.9783 15.468L91.0517 15.5857H91.1904V15.3357ZM92.1047 15.3357V15.5857H92.3547V15.3357H92.1047ZM92.1047 8.47859H92.3547V8.22859H92.1047V8.47859ZM91.2247 8.47859V8.22859H90.9747V8.47859H91.2247ZM91.2247 13.8157L91.0127 13.9483L91.4747 14.6871V13.8157H91.2247ZM79.715 14.2726C78.4578 12.9418 78.4578 10.8611 79.715 9.53027L79.3516 9.1869C77.9123 10.7104 77.9123 13.0925 79.3516 14.616L79.715 14.2726ZM84.3856 14.267C83.0922 15.5532 81.0029 15.5532 79.7096 14.267L79.357 14.6216C80.8454 16.1017 83.2498 16.1017 84.7381 14.6216L84.3856 14.267ZM84.3806 9.5308C85.643 10.8592 85.643 12.9437 84.3806 14.2721L84.7431 14.6165C86.1888 13.0951 86.1888 10.7077 84.7431 9.18637L84.3806 9.5308ZM82.0476 8.56177C82.925 8.56177 83.7662 8.91199 84.3844 9.53472L84.7393 9.18246C84.0272 8.46517 83.0583 8.06177 82.0476 8.06177V8.56177ZM79.7107 9.53472C80.3289 8.91199 81.1701 8.56177 82.0476 8.56177V8.06177C81.0369 8.06177 80.0679 8.46517 79.3559 9.18246L79.7107 9.53472ZM54.3807 12.193C54.4168 12.9718 54.132 13.7312 53.5927 14.2942L53.9538 14.6401C54.5878 13.9782 54.9226 13.0854 54.8802 12.1699L54.3807 12.193ZM54.3387 11.7114C54.3665 11.8665 54.3805 12.0238 54.3804 12.1813L54.8804 12.1815C54.8805 11.9942 54.8639 11.8073 54.8308 11.623L54.3387 11.7114ZM51.259 11.9172H54.5847V11.4172H51.259V11.9172ZM51.509 12.49V11.6672H51.009V12.49H51.509ZM53.739 12.24H51.259V12.74H53.739V12.24ZM53.3513 14.0538C53.7437 13.6286 53.97 13.0765 53.9889 12.4982L53.4891 12.4819C53.4742 12.9402 53.2948 13.3778 52.9838 13.7148L53.3513 14.0538ZM50.1231 14.6501C51.2157 15.1226 52.4854 14.8914 53.3413 14.0641L52.9938 13.7046C52.2831 14.3916 51.2289 14.5835 50.3216 14.1911L50.1231 14.6501ZM48.3462 11.9036C48.3294 13.094 49.0305 14.1775 50.1231 14.6501L50.3216 14.1911C49.4143 13.7987 48.8322 12.8991 48.8461 11.9107L48.3462 11.9036ZM49.1642 9.79466C48.6144 10.361 48.3191 11.1269 48.3463 11.9158L48.846 11.8985C48.8235 11.2456 49.0679 10.6117 49.523 10.1429L49.1642 9.79466ZM51.2602 8.9143C50.4709 8.91043 49.7141 9.22832 49.1642 9.79466L49.523 10.1429C49.9781 9.6742 50.6045 9.41109 51.2578 9.4143L51.2602 8.9143ZM53.3246 9.81485C52.8116 9.2046 52.0414 8.87117 51.2454 8.91467L51.2726 9.41393C51.9117 9.37901 52.53 9.64669 52.9419 10.1366L53.3246 9.81485ZM53.5622 9.19324L52.9565 9.79895L53.3101 10.1525L53.9158 9.54679L53.5622 9.19324ZM52.5712 8.83615C52.9481 8.98818 53.2837 9.22735 53.5503 9.53405L53.9277 9.20598C53.6092 8.83967 53.2084 8.55403 52.7582 8.37245L52.5712 8.83615ZM51.2598 8.56859C51.7089 8.56709 52.1535 8.65746 52.5664 8.83414L52.7631 8.37446C52.2875 8.17096 51.7754 8.06687 51.2582 8.06859L51.2598 8.56859ZM48.9119 9.5221C49.527 8.89414 50.3746 8.54894 51.2534 8.56852L51.2646 8.06865C50.2475 8.04598 49.2665 8.44549 48.5547 9.17222L48.9119 9.5221ZM48.1893 13.1593C47.6762 11.9126 47.9604 10.4798 48.9106 9.52336L48.5559 9.17096C47.4639 10.2701 47.1372 11.9168 47.7269 13.3496L48.1893 13.1593ZM51.261 15.2343C49.9128 15.2238 48.7024 14.4061 48.1893 13.1593L47.7269 13.3496C48.3166 14.7824 49.7077 15.7222 51.257 15.7343L51.261 15.2343ZM53.5932 14.2938C52.987 14.9235 52.1414 15.2656 51.2679 15.2345L51.2501 15.7341C52.2657 15.7703 53.2486 15.3726 53.9534 14.6405L53.5932 14.2938ZM59.8647 9.0743H56.779V9.5743H59.8647V9.0743ZM59.6147 8.47859V9.3243H60.1147V8.47859H59.6147ZM55.8647 8.72859H59.8647V8.22859H55.8647V8.72859ZM56.1147 15.3357V8.47859H55.6147V15.3357H56.1147ZM59.8647 15.0857H55.8647V15.5857H59.8647V15.0857ZM59.6147 14.49V15.3357H60.1147V14.49H59.6147ZM56.779 14.74H59.8647V14.24H56.779V14.74ZM56.529 12.3186V14.49H57.029V12.3186H56.529ZM59.5904 12.0686H56.779V12.5686H59.5904V12.0686ZM59.3404 11.4957V12.3186H59.8404V11.4957H59.3404ZM56.779 11.7457H59.5904V11.2457H56.779V11.7457ZM56.529 9.3243V11.4957H57.029V9.3243H56.529ZM62.7333 15.5857H63.6133V15.0857H62.7333V15.5857ZM62.4833 9.3243V15.3357H62.9833V9.3243H62.4833ZM60.8133 9.5743H62.7333V9.0743H60.8133V9.5743ZM60.5633 8.47859V9.3243H61.0633V8.47859H60.5633ZM65.579 8.22859H60.8133V8.72859H65.579V8.22859ZM65.829 9.3243V8.47859H65.329V9.3243H65.829ZM63.6133 9.5743H65.579V9.0743H63.6133V9.5743ZM63.8633 15.3357V9.3243H63.3633V15.3357H63.8633ZM68.939 8.72859H69.819V8.22859H68.939V8.72859ZM69.189 15.3357V8.47859H68.689V15.3357H69.189ZM69.819 15.0857H68.939V15.5857H69.819V15.0857ZM69.569 8.47859V15.3357H70.069V8.47859H69.569ZM72.8476 15.5857H73.7276V15.0857H72.8476V15.5857ZM72.5976 9.3243V15.3357H73.0976V9.3243H72.5976ZM70.9276 9.5743H72.8476V9.0743H70.9276V9.5743ZM70.6776 8.47859V9.3243H71.1776V8.47859H70.6776ZM75.6361 8.22859H70.9276V8.72859H75.6361V8.22859ZM75.8861 9.3243V8.47859H75.3861V9.3243H75.8861ZM73.7276 9.5743H75.6361V9.0743H73.7276V9.5743ZM73.9776 15.3357V9.3243H73.4776V15.3357H73.9776ZM83.7253 10.1094C84.6505 11.1294 84.6505 12.685 83.7253 13.7049L84.0956 14.0408C85.1937 12.8303 85.1937 10.984 84.0956 9.77348L83.7253 10.1094ZM80.3611 10.1186C81.2937 9.18994 82.8015 9.18994 83.734 10.1186L84.0868 9.7643C82.9592 8.64137 81.1359 8.64137 80.0083 9.7643L80.3611 10.1186ZM80.3699 13.7049C79.4447 12.685 79.4447 11.1294 80.3699 10.1094L79.9995 9.77348C78.9014 10.984 78.9014 12.8303 79.9995 14.0408L80.3699 13.7049ZM83.734 13.6957C82.8015 14.6244 81.2937 14.6244 80.3611 13.6957L80.0083 14.05C81.1359 15.1729 82.9592 15.1729 84.0868 14.05L83.734 13.6957ZM86.8133 8.72859H87.8876V8.22859H86.8133V8.72859ZM87.0633 15.3357V8.47859H86.5633V15.3357H87.0633ZM87.7047 15.0857H86.8133V15.5857H87.7047V15.0857ZM87.4547 9.74716V15.3357H87.9547V9.74716H87.4547ZM91.4026 15.2034L87.9168 9.61485L87.4926 9.87946L90.9783 15.468L91.4026 15.2034ZM92.1047 15.0857H91.1904V15.5857H92.1047V15.0857ZM91.8547 8.47859V15.3357H92.3547V8.47859H91.8547ZM91.2247 8.72859H92.1047V8.22859H91.2247V8.72859ZM91.4747 13.8157V8.47859H90.9747V13.8157H91.4747ZM87.6756 8.61113L91.0127 13.9483L91.4367 13.6832L88.0995 8.34605L87.6756 8.61113Z" fill="white"/>
<path d="M12.3676 9.09587C11.9951 9.54285 11.8071 10.1151 11.8419 10.6959V35.9759C11.8071 36.5567 11.9951 37.1289 12.3676 37.5759L12.4476 37.6559L26.6076 23.5073V23.1759L12.4476 9.01587L12.3676 9.09587Z" fill="url(#paint0_linear)"/>
<path d="M31.2933 28.2272L26.6076 23.5072V23.1758L31.2933 18.4443L31.3961 18.5015L37.0076 21.6901C38.6076 22.5929 38.6076 24.0786 37.0076 24.9929L31.419 28.1701L31.2933 28.2272Z" fill="url(#paint1_linear)"/>
<path d="M31.4304 28.1588L26.6076 23.3359L12.3676 37.5759C13.0404 38.1674 14.0389 38.1962 14.7447 37.6445L31.4419 28.1588" fill="url(#paint2_linear)"/>
<path d="M31.4305 18.513L14.7333 9.02725C14.0275 8.47556 13.029 8.50437 12.3562 9.09582L26.6076 23.3358L31.4305 18.513Z" fill="url(#paint3_linear)"/>
<path opacity="0.2" d="M31.2933 28.0559L14.7333 37.4845C14.0556 37.9912 13.1253 37.9912 12.4476 37.4845L12.3676 37.5645L12.4476 37.6445C13.124 38.155 14.0569 38.155 14.7333 37.6445L31.4304 28.1588L31.2933 28.0559Z" fill="black"/>
<path opacity="0.12" fill-rule="evenodd" clip-rule="evenodd" d="M31.2933 28.0559L37.0076 24.8217C37.5981 24.5302 38.0202 23.9815 38.1504 23.3359C38.0915 24.0495 37.6557 24.6772 37.0076 24.9817L31.3961 28.1588L31.2933 28.0559ZM11.8394 36.0384C11.8582 36.5412 12.0428 37.0262 12.3676 37.4159L12.4476 37.5074L12.3676 37.5874C12.006 37.1535 11.8182 36.6016 11.8394 36.0384ZM11.8394 36.0384C11.84 36.0214 11.8408 36.0044 11.8419 35.9874V35.8159C11.8374 35.8903 11.8366 35.9646 11.8394 36.0384Z" fill="black"/>
<path opacity="0.25" d="M14.7333 9.18715L37.0076 21.85C37.5981 22.1415 38.0202 22.6902 38.1504 23.3357C38.0916 22.6221 37.6557 21.9945 37.0076 21.69L14.7333 9.02715C13.1333 8.1243 11.8304 8.87858 11.8304 10.7072V10.8786C11.8647 9.03858 13.1447 8.2843 14.7333 9.18715V9.18715Z" fill="white"/>
<defs>
<linearGradient id="paint0_linear" x1="20.4056" y1="-8.1601" x2="-2.26807" y2="-2.13" gradientUnits="userSpaceOnUse">
<stop stop-color="#00A0FF"/>
<stop offset="0.01" stop-color="#00A1FF"/>
<stop offset="0.26" stop-color="#00BEFF"/>
<stop offset="0.51" stop-color="#00D2FF"/>
<stop offset="0.76" stop-color="#00DFFF"/>
<stop offset="1" stop-color="#00E3FF"/>
</linearGradient>
<linearGradient id="paint1_linear" x1="39.099" y1="11.6783" x2="11.4533" y2="11.6783" gradientUnits="userSpaceOnUse">
<stop stop-color="#FFE000"/>
<stop offset="0.41" stop-color="#FFBD00"/>
<stop offset="0.78" stop-color="#FFA500"/>
<stop offset="1" stop-color="#FF9C00"/>
</linearGradient>
<linearGradient id="paint2_linear" x1="11.9492" y1="15.9388" x2="-6.26391" y2="46.5749" gradientUnits="userSpaceOnUse">
<stop stop-color="#FF3A44"/>
<stop offset="1" stop-color="#C31162"/>
</linearGradient>
<linearGradient id="paint3_linear" x1="1.24762" y1="5.15983" x2="9.37709" y2="18.8404" gradientUnits="userSpaceOnUse">
<stop stop-color="#32A071"/>
<stop offset="0.07" stop-color="#2DA771"/>
<stop offset="0.48" stop-color="#15CF74"/>
<stop offset="0.8" stop-color="#06E775"/>
<stop offset="1" stop-color="#00F076"/>
</linearGradient>
</defs>
</svg>
