<svg width="141" height="46" viewBox="0 0 141 46" fill="none" xmlns="http://www.w3.org/2000/svg">
<rect x="1.07186" y="1.27432" width="139.3" height="44.3" rx="7.65" stroke="black" stroke-width="0.7"/>
<path fill-rule="evenodd" clip-rule="evenodd" d="M88.5627 33.5001C86.6253 33.5001 85.2074 32.5418 85.0442 31.0823L82.7895 31.0822C82.9319 33.7442 85.1356 35.4283 88.3995 35.4283C91.888 35.4283 94.0801 33.7037 94.0801 30.9503C94.0801 28.7975 92.8266 27.5845 89.8069 26.8704L88.1854 26.4722C86.2884 26.0035 85.513 25.3913 85.513 24.3508C85.513 23.0452 86.7271 22.1482 88.5014 22.1482C90.2757 22.1482 91.4898 23.0348 91.6229 24.5035H93.8463C93.7746 21.9642 91.6426 20.22 88.5315 20.22C85.3903 20.22 83.1773 21.9642 83.1773 24.5035C83.1773 26.5545 84.432 27.8184 87.1345 28.4711L89.0419 28.9306C90.9493 29.3994 91.7549 30.0834 91.7549 31.2258C91.7549 32.5417 90.4192 33.5001 88.5627 33.5001ZM50.1906 31.205H44.5807L43.2335 35.183H40.8573L46.171 20.4654H48.6397L53.9534 35.183H51.5367L50.1906 31.205ZM45.1617 29.3693H49.6085L47.4164 22.9133H47.355L45.1617 29.3693ZM60.951 35.2953C63.6443 35.2953 65.4291 33.1529 65.4291 29.8184C65.4291 26.4932 63.6339 24.3404 60.9105 24.3404C59.5092 24.2952 58.1964 25.0241 57.4938 26.2374H57.4533V24.4527H55.3214V38.7328H57.5239V33.4179H57.5749C58.2476 34.6389 59.5589 35.3681 60.951 35.2953ZM63.1652 29.8184C63.1652 27.646 62.0425 26.2177 60.3295 26.2177C58.6466 26.2177 57.5147 27.6761 57.5147 29.8184C57.5147 31.9805 58.6466 33.4284 60.3295 33.4284C62.0425 33.4284 63.1651 32.0105 63.1651 29.8184H63.1652ZM72.7612 35.2953C75.4545 35.2953 77.2398 33.1529 77.2398 29.8184C77.2398 26.4932 75.4441 24.3404 72.7207 24.3404C71.3193 24.2952 70.0066 25.0241 69.304 26.2374H69.2635V24.4527H67.1316V38.7328H69.3341V33.4179H69.3851C70.0578 34.6389 71.3691 35.3681 72.7612 35.2953ZM74.9754 29.8184C74.9754 27.646 73.8527 26.2177 72.1397 26.2177C70.4568 26.2177 69.3249 27.6761 69.3249 29.8184C69.3249 31.9805 70.4568 33.4284 72.1397 33.4284C73.8527 33.4284 74.9754 32.0105 74.9754 29.8184ZM98.8359 21.9133V24.4527H100.876V26.1969H98.8359V32.1124C98.8359 33.0314 99.2445 33.4596 100.141 33.4596C100.384 33.4554 100.626 33.4384 100.866 33.4087V35.1424C100.463 35.2178 100.053 35.2519 99.6426 35.2443C97.4701 35.2443 96.6229 34.4283 96.6229 32.3473V26.1969H95.0627V24.4527H96.6229V21.9133H98.8359ZM107.146 24.3207C104.045 24.3207 102.057 26.4423 102.057 29.8184C102.057 33.2038 104.026 35.3161 107.146 35.3161C110.268 35.3161 112.236 33.2038 112.236 29.8184C112.236 26.4422 110.257 24.3207 107.146 24.3207ZM109.992 29.8184C109.992 27.5024 108.931 26.1356 107.146 26.1356C105.361 26.1356 104.3 27.5129 104.3 29.8184C104.3 32.1436 105.361 33.5001 107.146 33.5001C108.931 33.5001 109.992 32.1436 109.992 29.8184ZM116.153 24.4527H114.052L114.052 35.183H116.255V28.8184C116.182 28.1745 116.393 27.5307 116.835 27.0561C117.276 26.5814 117.902 26.3234 118.55 26.3497C118.885 26.3399 119.219 26.3848 119.54 26.4827V24.4226C119.292 24.3671 119.039 24.3395 118.785 24.3404C117.574 24.2942 116.497 25.1033 116.204 26.279H116.153V24.4527ZM129.695 32.0314C129.398 33.9793 127.501 35.3161 125.074 35.3161C121.953 35.3161 120.015 33.2247 120.015 29.8693C120.015 26.5036 121.963 24.3207 124.982 24.3207C127.95 24.3207 129.817 26.3601 129.817 29.6135V30.3682H122.239V30.5013C122.168 31.3001 122.444 32.0909 122.996 32.6724C123.548 33.2539 124.324 33.5701 125.125 33.5406C126.194 33.6408 127.202 33.027 127.603 32.0314L129.695 32.0314ZM127.614 28.8288H122.249C122.247 28.1044 122.535 27.4092 123.048 26.8978C123.561 26.3864 124.257 26.1011 124.982 26.1054C125.7 26.09 126.393 26.3751 126.893 26.8921C127.392 27.409 127.654 28.111 127.614 28.8288Z" fill="black"/>
<path fill-rule="evenodd" clip-rule="evenodd" d="M70.0923 9.03906H71.1455V16.4592H70.0923V9.03906ZM47.3817 10.3568C46.7371 9.67616 45.8213 9.32041 44.8862 9.38751H42.3318V16.4593H44.8862C46.9927 16.4593 48.2138 15.1607 48.2138 12.9014C48.3317 11.9714 48.0263 11.0375 47.3817 10.3568ZM44.7636 15.4592H43.4302V10.3869H44.7636C45.4282 10.35 46.0746 10.6121 46.5259 11.1014C46.9772 11.5908 47.1862 12.2563 47.0957 12.9158C47.1933 13.5781 46.9873 14.2491 46.5349 14.7425C46.0824 15.2359 45.4318 15.4992 44.7636 15.4592ZM49.4545 13.7885C49.363 12.8319 49.8217 11.9062 50.6382 11.3995C51.4547 10.8928 52.4879 10.8928 53.3044 11.3995C54.1209 11.9062 54.5796 12.8319 54.4881 13.7885C54.5813 14.7461 54.1231 15.6737 53.3058 16.1814C52.4886 16.6892 51.454 16.6892 50.6368 16.1814C49.8195 15.6737 49.3613 14.7461 49.4545 13.7885ZM51.973 11.9552C52.8851 11.9552 53.4047 12.6317 53.4047 13.7885H53.4048C53.4048 14.95 52.8851 15.6259 51.973 15.6259C51.0576 15.6259 50.5425 14.9546 50.5425 13.7885C50.5425 12.6317 51.0575 11.9552 51.973 11.9552ZM61.1791 16.4592H60.0865L58.9835 12.5287H58.9001L57.8018 16.4592H56.7196L55.2485 11.1224H56.3168L57.2728 15.1947H57.3515L58.4488 11.1224H59.4592L60.5564 15.1947H60.6397L61.5911 11.1224H62.6443L61.1791 16.4592ZM64.8955 11.1224H63.8816L63.8816 16.4592H64.9348V13.3371C64.8971 12.9819 65.0163 12.628 65.2612 12.368C65.5061 12.1081 65.8524 11.9681 66.2092 11.9847C66.9881 11.9847 67.3608 12.4112 67.3608 13.2688V16.4592H68.414V13.0043C68.4912 12.4825 68.327 11.9539 67.9676 11.5678C67.6083 11.1816 67.0928 10.9798 66.5668 11.0194C65.8875 10.9642 65.2479 11.346 64.9742 11.9702H64.8955V11.1224ZM73.7935 11.3994C72.9769 11.9061 72.5182 12.8319 72.6096 13.7885C72.5165 14.7461 72.9748 15.6737 73.7921 16.1814C74.6094 16.6892 75.644 16.6892 76.4613 16.1814C77.2785 15.6737 77.7369 14.7461 77.6438 13.7885C77.7352 12.8319 77.2764 11.9061 76.4599 11.3994C75.6433 10.8927 74.6101 10.8927 73.7935 11.3994ZM76.5598 13.7885C76.5598 12.6317 76.0402 11.9552 75.1281 11.9552C74.2126 11.9552 73.6976 12.6317 73.6976 13.7885C73.6976 14.9546 74.2127 15.6259 75.1281 15.6259C76.0402 15.6259 76.5599 14.95 76.5598 13.7885ZM80.7375 13.3568C79.4678 13.4355 78.7526 13.9893 78.7526 14.95C78.7543 15.4055 78.9487 15.8389 79.2877 16.1432C79.6266 16.4475 80.0784 16.5943 80.5315 16.5472C81.1778 16.577 81.7902 16.2569 82.1345 15.7092H82.2178V16.4592H83.2317V12.8128C83.2317 11.6855 82.4771 11.0194 81.1391 11.0194C79.9285 11.0194 79.0662 11.6074 78.9586 12.524H79.9783C80.0952 12.1467 80.5026 11.9309 81.0905 11.9309C81.8104 11.9309 82.1831 12.2491 82.1831 12.8128V13.2735L80.7375 13.3568ZM82.1831 14.4939V14.0478L80.8799 14.1311C80.1449 14.1803 79.8116 14.4303 79.8116 14.9008C79.8116 15.3811 80.2283 15.6606 80.8012 15.6606C81.1404 15.6949 81.479 15.5901 81.7395 15.3702C82 15.1503 82.1601 14.8341 82.1831 14.4939ZM86.8313 11.0339C85.4829 11.0339 84.616 12.1022 84.616 13.7885C84.616 15.4789 85.4736 16.5472 86.8313 16.5472C87.5196 16.5725 88.1651 16.2139 88.5072 15.616H88.5905V16.4592H89.5998V9.03906H88.5465V11.9702H88.4678C88.1498 11.3673 87.5121 11.0025 86.8313 11.0339ZM85.704 13.7885C85.704 14.9204 86.2376 15.6016 87.1299 15.6016C88.0176 15.6016 88.5663 14.9106 88.5663 13.7931C88.5663 12.6809 88.0119 11.9801 87.1299 11.9801C86.2433 11.9801 85.7039 12.6658 85.7039 13.7885H85.704ZM95.1411 11.3995C94.3246 11.9062 93.8659 12.8319 93.9574 13.7885C93.8642 14.7461 94.3224 15.6737 95.1397 16.1814C95.9569 16.6892 96.9915 16.6892 97.8087 16.1814C98.626 15.6737 99.0842 14.7461 98.991 13.7885C99.0825 12.8319 98.6238 11.9062 97.8073 11.3995C96.9908 10.8928 95.9576 10.8928 95.1411 11.3995ZM97.9076 13.7885C97.9076 12.6317 97.388 11.9552 96.4759 11.9552C95.5604 11.9552 95.0454 12.6317 95.0454 13.7885C95.0454 14.9546 95.5605 15.6259 96.4759 15.6259C97.388 15.6259 97.9076 14.95 97.9076 13.7885ZM101.418 11.1224H100.404V16.4592H101.457V13.3371C101.42 12.9819 101.539 12.628 101.784 12.368C102.029 12.1081 102.375 11.9681 102.732 11.9847C103.511 11.9847 103.883 12.4112 103.883 13.2688V16.4592H104.937V13.0043C105.014 12.4825 104.85 11.9539 104.49 11.5678C104.131 11.1816 103.615 10.9798 103.089 11.0194C102.41 10.9642 101.77 11.346 101.497 11.9702H101.418V11.1224ZM110.888 9.79371V11.1467H112.044V12.0339H110.888V14.7781C110.888 15.3371 111.118 15.5819 111.643 15.5819C111.777 15.5815 111.911 15.5734 112.044 15.5576V16.4349C111.855 16.4687 111.663 16.4867 111.471 16.4887C110.3 16.4887 109.834 16.0767 109.834 15.0477V12.0338H108.986V11.1467H109.834V9.79371H110.888ZM114.527 9.03906H113.483L113.483 16.4592H114.536V13.3423C114.504 12.9761 114.634 12.6142 114.893 12.3533C115.152 12.0924 115.513 11.9592 115.88 11.9893C116.624 11.9893 117.021 12.421 117.021 13.2734V16.4592H118.075V13.0136C118.145 12.4945 117.98 11.9713 117.624 11.5865C117.269 11.2018 116.76 10.9956 116.237 11.024C115.548 10.9681 114.897 11.3504 114.61 11.98H114.527V9.03906ZM124.217 15.0182C123.921 16.0249 122.947 16.6753 121.904 16.5622C121.193 16.581 120.509 16.286 120.034 15.7556C119.559 15.2251 119.342 14.5128 119.439 13.8076C119.344 13.1004 119.561 12.387 120.033 11.852C120.505 11.3171 121.186 11.0133 121.9 11.0194C123.385 11.0194 124.28 12.0339 124.28 13.7098V14.0773H120.512V14.1363C120.478 14.5323 120.614 14.924 120.884 15.2151C121.155 15.5062 121.536 15.6696 121.933 15.6652C122.448 15.7271 122.95 15.4715 123.203 15.0182L124.217 15.0182ZM123.207 13.2983H120.512C120.507 12.9303 120.651 12.576 120.911 12.3157C121.171 12.0554 121.526 11.9112 121.894 11.9158C122.257 11.9075 122.607 12.0529 122.857 12.3162C123.107 12.5795 123.234 12.9361 123.207 13.2983Z" fill="black"/>
<path fill-rule="evenodd" clip-rule="evenodd" d="M27.6879 8.3396C27.8073 9.89773 27.3145 11.441 26.3143 12.6417C25.3439 13.8486 23.8736 14.5438 22.3251 14.5278C22.2266 13.0146 22.7337 11.5242 23.7347 10.385C24.7484 9.2304 26.1599 8.50009 27.6879 8.3396ZM32.5853 17.4948C30.804 18.59 29.7079 20.5213 29.681 22.6121C29.6835 24.9777 31.1001 27.1125 33.2788 28.034C32.8598 29.3951 32.2282 30.6815 31.4074 31.8454C30.3051 33.4943 29.1494 35.1053 27.315 35.135C26.4426 35.1552 25.8536 34.9043 25.24 34.6429C24.5999 34.3702 23.9329 34.0861 22.8892 34.0861C21.7822 34.0861 21.0854 34.3794 20.4133 34.6622C19.8325 34.9067 19.2702 35.1433 18.4777 35.1762C16.7307 35.2409 15.3956 33.4163 14.2532 31.7828C11.97 28.447 10.192 22.3819 12.5756 18.2551C13.6949 16.2438 15.7877 14.9674 18.0883 14.8931C19.0791 14.8727 20.0299 15.2546 20.8634 15.5894C21.5009 15.8455 22.0698 16.074 22.5357 16.074C22.9452 16.074 23.4983 15.8545 24.1428 15.5987C25.1581 15.1957 26.4004 14.7027 27.6664 14.8356C29.6335 14.8971 31.4565 15.8826 32.5853 17.4948Z" fill="black"/>
</svg>
