<svg width="32" height="32" viewBox="0 0 32 32" fill="none" xmlns="http://www.w3.org/2000/svg">
<mask id="mask0" mask-type="alpha" maskUnits="userSpaceOnUse" x="2" y="4" width="28" height="25">
<path fill-rule="evenodd" clip-rule="evenodd" d="M22 4C19.68 4 17.4533 5.08 16 6.78667C14.5467 5.08 12.32 4 9.99999 4C5.89332 4 2.66666 7.22667 2.66666 11.3333C2.66666 16.3733 7.19999 20.48 14.0667 26.72L16 28.4667L17.9333 26.7067C24.8 20.48 29.3333 16.3733 29.3333 11.3333C29.3333 7.22667 26.1067 4 22 4ZM16.1333 24.7333L16 24.8667L15.8667 24.7333C9.51999 18.9867 5.33332 15.1867 5.33332 11.3333C5.33332 8.66667 7.33332 6.66667 9.99999 6.66667C12.0533 6.66667 14.0533 7.98667 14.76 9.81333H17.2533C17.9467 7.98667 19.9467 6.66667 22 6.66667C24.6667 6.66667 26.6667 8.66667 26.6667 11.3333C26.6667 15.1867 22.48 18.9867 16.1333 24.7333Z" fill="white"/>
</mask>
<g mask="url(#mask0)">
<rect x="-17.3333" y="-17.3333" width="66.6667" height="66.6667" fill="#2C2B2B"/>
<mask id="mask1" mask-type="alpha" maskUnits="userSpaceOnUse" x="-18" y="-18" width="68" height="68">
<rect x="-17.3333" y="-17.3333" width="66.6667" height="66.6667" fill="white"/>
</mask>
<g mask="url(#mask1)">
</g>
</g>
</svg>
