<svg width="53" height="53" viewBox="0 0 53 53" fill="none" xmlns="http://www.w3.org/2000/svg">
<rect x="0.391602" y="0.504883" width="52" height="52" rx="9.20136" fill="#EB2025"/>
<path d="M41.0166 32.4144C40.291 32.6177 39.6758 33.1011 39.3067 33.7581C36.6816 38.4221 31.7456 41.3081 26.3936 41.3081C21.0416 41.3081 16.1055 38.4221 13.4805 33.7581C12.9821 32.8733 12.0496 32.3216 11.0342 32.3108C10.0188 32.3 9.07474 32.8317 8.55768 33.7057C8.04062 34.5797 8.02909 35.6631 8.52744 36.5479C12.1579 43.0027 18.9878 46.9974 26.3936 46.9974C33.7993 46.9974 40.6292 43.0027 44.2597 36.5479C45.0272 35.1785 44.5425 33.4464 43.1758 32.6742C42.5191 32.3045 41.7423 32.2111 41.0166 32.4144Z" fill="white"/>
<path d="M26.6613 32.8163C27.8133 32.862 28.9359 32.4465 29.7806 31.6619C30.6253 30.8773 31.1223 29.7884 31.1616 28.6362C31.1616 27.0355 30.0502 25.9241 27.6492 25.4348L23.2129 24.4469C17.9123 23.2761 15.1362 19.8277 15.1362 15.6979C15.1362 10.4613 19.9429 6.02051 26.1674 6.02051C31.5594 6.02051 34.6054 8.26607 36.2289 10.6534C36.7714 11.4829 36.8854 12.5216 36.5356 13.449C36.1857 14.3764 35.4142 15.0811 34.459 15.3457C33.1336 15.7345 31.711 15.1969 30.974 14.0286C30.1966 12.7572 28.7468 11.6275 26.1811 11.6275C23.6154 11.6275 21.8683 13.2282 21.8683 15.0759C21.8683 16.6766 23.0391 17.8474 24.8868 18.2179L29.4602 19.1326C35.1267 20.3674 38.0857 23.706 38.0857 28.1331C38.0857 32.7065 34.3858 38.4782 26.7482 38.4782C22.2466 38.5697 18.0388 36.2504 15.7125 32.3955C15.2109 31.5639 15.1273 30.5456 15.4864 29.6433C15.8455 28.741 16.606 28.0587 17.5419 27.7992L17.7705 27.7352C19.1484 27.3746 20.5936 28.0065 21.2646 29.2627C22.1885 30.9092 23.9858 32.8163 26.6613 32.8163Z" fill="white"/>
</svg>
