<svg width="24" height="24" viewBox="0 0 24 24" fill="none" xmlns="http://www.w3.org/2000/svg">
<g id="ic_payment">
<mask id="mask0" mask-type="alpha" maskUnits="userSpaceOnUse" x="2" y="4" width="20" height="16">
<path id="Mask" fill-rule="evenodd" clip-rule="evenodd" d="M20 4H4C2.89 4 2.01 4.89 2.01 6L2 18C2 19.11 2.89 20 4 20H20C21.11 20 22 19.11 22 18V6C22 4.89 21.11 4 20 4ZM20 18H4V12H20V18ZM20 8H4V6H20V8Z" fill="white"/>
</mask>
<g mask="url(#mask0)">
<g id="Colors/White">
<rect id="White" x="-13" y="-13" width="50" height="50" fill="white"/>
<mask id="mask1" mask-type="alpha" maskUnits="userSpaceOnUse" x="-13" y="-13" width="50" height="50">
<rect id="White_2" x="-13" y="-13" width="50" height="50" fill="white"/>
</mask>
<g mask="url(#mask1)">
</g>
</g>
</g>
</g>
</svg>
