<svg width="55" height="57" viewBox="0 0 55 57" fill="none" xmlns="http://www.w3.org/2000/svg">
<path fill-rule="evenodd" clip-rule="evenodd" d="M17.1613 48.2216C15.1659 48.2216 13.5484 46.6041 13.5484 44.6087V12.761C5.21016 16.9646 0.235134 25.7867 0.952508 35.097C1.66988 44.4073 7.93767 52.3631 16.8214 55.2397C25.7052 58.1163 35.4467 55.3444 41.4852 48.2216H17.1613Z" fill="#E9EAEB"/>
<path d="M34.3226 48.2216H17.1613C15.1659 48.2216 13.5484 46.6041 13.5484 44.6087V4.86681C13.5484 2.87146 15.1659 1.25391 17.1613 1.25391H46.9677C48.9631 1.25391 50.5806 2.87146 50.5806 4.86681V28.3507" stroke="#D71F28" stroke-width="1.80645"/>
<path d="M30.7097 40.9959H17.1613V8.47974H46.9677V28.3507" stroke="#D71F28" stroke-width="1.80645"/>
<path fill-rule="evenodd" clip-rule="evenodd" d="M51.4839 32.8668H49.6774C49.6319 31.8886 48.8491 31.1059 47.871 31.0603H46.0645C45.622 30.5114 44.9628 30.1818 44.2581 30.1571H42.4516V23.8345C42.4516 22.8369 41.6428 22.0281 40.6452 22.0281C39.6475 22.0281 38.8387 22.8369 38.8387 23.8345V37.3829L37.6284 38.539L35.271 34.9261C33.8258 32.939 31.6581 34.0229 31.6581 34.9261C31.6581 34.9261 34.3677 43.6694 34.7923 44.2836C35.4245 45.2771 37.9806 47.49 37.9806 48.2668V51.8797H51.529V49.17C51.529 47.9507 53.3355 46.4603 53.3355 44.6539V34.6732C53.2883 33.6783 52.4796 32.8894 51.4839 32.8668Z" fill="white"/>
<path d="M37.9355 51.8345V48.2216C37.9355 47.4449 35.3794 45.2319 34.7471 44.2384C34.3497 43.6242 31.6129 34.881 31.6129 34.881C31.6129 33.9778 33.8258 32.8939 35.2258 34.881L37.5832 38.4939L38.8387 37.3829V23.8345C38.8387 22.8369 39.6475 22.0281 40.6452 22.0281V22.0281C41.6428 22.0281 42.4516 22.8369 42.4516 23.8345V30.1571H44.2581C44.9627 30.1818 45.622 30.5114 46.0645 31.0603H47.871C48.8491 31.1059 49.6318 31.8886 49.6774 32.8668H51.4839C52.462 32.9124 53.2447 33.6951 53.2903 34.6732V44.6087C53.2903 46.4152 51.4839 47.9055 51.4839 49.1249V51.8345" stroke="#D71F28" stroke-width="1.80645"/>
<path d="M46.0645 31.0603V35.5764" stroke="#D71F28" stroke-width="1.80645"/>
<path d="M49.6774 32.8667V36.4796" stroke="#D71F28" stroke-width="1.80645"/>
<rect x="36.129" y="50.9314" width="17.1613" height="4.51613" fill="#FFE1E5"/>
<path d="M53.2903 55.4475V50.9314H36.129V55.4475" stroke="#D71F28" stroke-width="1.80645"/>
<path d="M28.9032 4.8669H36.129" stroke="#D71F28" stroke-width="1.80645"/>
<path fill-rule="evenodd" clip-rule="evenodd" d="M31.631 21.1248H20.7923L20.7742 12.0925H31.6129L31.631 21.1248Z" fill="white" stroke="#D71F28" stroke-width="1.80645"/>
<path d="M34.3226 13.8991H44.2581" stroke="#D71F28" stroke-width="1.80645"/>
<path d="M34.3226 17.5119H41.5484" stroke="#D71F28" stroke-width="1.80645"/>
<path d="M19.871 24.7377H32.5161" stroke="#D71F28" stroke-width="1.80645"/>
<path d="M19.871 28.3508H32.5161" stroke="#D71F28" stroke-width="1.80645"/>
<path d="M19.871 31.9636H27.0968" stroke="#D71F28" stroke-width="1.80645"/>
</svg>
