<svg width="151" height="35" viewBox="0 0 151 35" fill="none" xmlns="http://www.w3.org/2000/svg">
<path d="M51.5607 26.8194H51.4447C50.5062 26.8194 49.7454 26.0585 49.7454 25.12V9.32885H44.6566C43.7417 9.32885 43 8.58716 43 7.67224C43 6.75731 43.7417 6.01562 44.6566 6.01562H58.3854C59.3003 6.01562 60.042 6.75731 60.042 7.67224C60.042 8.58716 59.3003 9.32885 58.3854 9.32885H53.2631V25.1048C53.2671 25.5586 53.0895 25.9953 52.7697 26.3173C52.4499 26.6394 52.0146 26.8202 51.5607 26.8194Z" fill="#D71F28"/>
<path d="M61.7715 25.1044V7.69932C61.7715 7.24863 61.9505 6.8164 62.2692 6.49772C62.5879 6.17904 63.0201 6 63.4708 6C63.9215 6 64.3537 6.17904 64.6724 6.49772C64.9911 6.8164 65.1701 7.24863 65.1701 7.69932V13.9047C66.1403 12.6417 67.7511 12.1139 69.2461 12.1139C72.7667 12.1139 74.4661 14.6369 74.4661 17.7732V25.0953C74.4661 26.0338 73.7052 26.7946 72.7667 26.7946C72.3155 26.7954 71.8825 26.6167 71.5632 26.2979C71.2438 25.9792 71.0644 25.5465 71.0644 25.0953V18.359C71.0644 16.6017 70.2742 15.1922 68.1325 15.1922C66.2562 15.1922 65.2311 16.6017 65.1701 18.42V25.1044C65.1701 26.0429 64.4093 26.8037 63.4708 26.8037C63.0201 26.8037 62.5879 26.6247 62.2692 26.306C61.9505 25.9873 61.7715 25.5551 61.7715 25.1044Z" fill="#D71F28"/>
<path fill-rule="evenodd" clip-rule="evenodd" d="M76.2031 19.592C76.2031 24.4306 79.6323 27.2435 83.5038 27.2435C86.097 27.2435 88.0191 26.0873 89.1265 24.452C89.3838 24.0639 89.4433 23.5774 89.2873 23.1387C89.1312 22.7 88.7778 22.3603 88.3333 22.2218L88.2479 22.1944C87.6258 22.0057 86.9543 22.2554 86.6065 22.8045C86.0147 23.7015 85.0231 24.3117 83.4977 24.3117C81.3951 24.3543 79.6523 22.6919 79.5957 20.5896H87.8024C88.4292 20.5926 89.0284 20.3324 89.4542 19.8724C89.8799 19.4125 90.0931 18.795 90.0418 18.1703V18.1093C89.5567 14.3995 87.0763 12.0869 83.1499 12.0869C79.5591 12.0869 76.2031 15.0767 76.2031 19.592ZM79.6902 18.0879C79.8291 16.2735 81.3611 14.8835 83.1804 14.9212C85.5265 14.9212 86.6401 16.4252 86.7072 18.0879H79.6902Z" fill="#D71F28"/>
<path fill-rule="evenodd" clip-rule="evenodd" d="M102.522 25.5983C102.522 28.4905 101.173 29.8695 98.4765 29.8695C97.1401 29.9047 95.9013 29.1722 95.2884 27.9841C94.9534 27.3064 94.1909 26.9544 93.4579 27.139L93.3664 27.1634C92.895 27.2871 92.5067 27.6206 92.3132 28.0678C92.1197 28.515 92.1424 29.0263 92.3748 29.4546C93.4213 31.4163 95.6575 32.8105 98.5711 32.8105C103.928 32.8105 105.893 29.2624 105.893 25.4488V14.1607C105.893 13.2542 105.158 12.5193 104.252 12.5193C103.345 12.5193 102.61 13.2542 102.61 14.1607V14.3376C101.994 13.1692 100.615 12.2539 98.388 12.2539C94.4586 12.2539 91.7891 15.3932 91.7891 19.2037C91.7891 23.2217 94.5745 26.1536 98.388 26.1536C100.469 26.1536 101.912 25.1864 102.522 24.0729V25.5983ZM102.61 19.2176C102.61 19.2201 102.61 19.2226 102.61 19.2251V19.2098C102.61 19.2124 102.61 19.215 102.61 19.2176ZM98.9494 15.2071C101.052 15.2071 102.607 16.7812 102.61 19.2176C102.607 21.6752 101.113 23.2553 98.9494 23.2705C96.7223 23.2705 95.2274 21.7176 95.2274 19.2251C95.2274 16.7905 96.7802 15.2071 98.9494 15.2071Z" fill="#D71F28"/>
<path fill-rule="evenodd" clip-rule="evenodd" d="M111.522 8.22712C111.522 7.63592 111.287 7.06898 110.868 6.65123C110.45 6.23348 109.883 5.99919 109.291 6C108.072 6.00842 107.088 7.0013 107.092 8.22097C107.095 9.44065 108.084 10.4281 109.304 10.4298C110.523 10.4315 111.515 9.44678 111.522 8.22712ZM110.979 14.2129C110.979 13.2811 110.223 12.5258 109.291 12.5258H109.307C108.857 12.5217 108.424 12.6976 108.104 13.0145C107.784 13.3313 107.604 13.7628 107.604 14.2129V25.1197C107.606 26.0502 108.361 26.8037 109.291 26.8037C110.222 26.8037 110.977 26.0502 110.979 25.1197V14.2129Z" fill="#D71F28"/>
<path fill-rule="evenodd" clip-rule="evenodd" d="M120.116 27.2435C124.396 27.2435 127.535 24.0493 127.535 19.65C127.535 15.2812 124.366 12.0869 120.116 12.0869C115.866 12.0869 112.727 15.2506 112.727 19.65C112.727 24.0493 115.835 27.2435 120.116 27.2435ZM120.116 15.1652C122.227 15.1652 124.103 16.6906 124.103 19.65C124.103 22.6428 122.196 24.1957 120.116 24.1957C118.035 24.1957 116.128 22.6093 116.128 19.65C116.128 16.6906 118.005 15.1652 120.116 15.1652Z" fill="#D71F28"/>
<path fill-rule="evenodd" clip-rule="evenodd" d="M130.945 10.4298C132.165 10.432 133.157 9.44718 133.164 8.22712C133.164 6.99712 132.167 6 130.937 6C129.717 6.00674 128.732 6.99888 128.734 8.21896C128.737 9.43904 129.725 10.4275 130.945 10.4298ZM132.129 13.0201C131.813 12.7036 131.384 12.5258 130.937 12.5258H130.952C130.502 12.5217 130.069 12.6976 129.749 13.0145C129.43 13.3313 129.25 13.7628 129.25 14.2129V25.1197C129.252 26.0502 130.006 26.8037 130.937 26.8037C131.867 26.8037 132.621 26.0497 132.621 25.1197V14.2129C132.622 13.7657 132.445 13.3366 132.129 13.0201Z" fill="#D71F28"/>
<path d="M139.856 24.5466C141.262 24.5466 141.991 23.7839 141.991 22.9052C141.991 22.1425 141.463 21.5567 140.319 21.3218L138.208 20.852C135.685 20.2967 134.367 18.6554 134.367 16.6906C134.367 14.1981 136.655 12.0869 139.615 12.0869C142.18 12.0869 143.63 13.1547 144.398 14.2896C144.656 14.6841 144.71 15.1777 144.544 15.6187C144.379 16.0597 144.013 16.3954 143.559 16.5228C142.929 16.7086 142.253 16.4531 141.903 15.8974C141.531 15.2873 140.841 14.7534 139.621 14.7534C138.4 14.7534 137.571 15.5161 137.571 16.3947C137.571 17.1574 138.126 17.7157 139.004 17.8927L141.177 18.332C143.874 18.9178 145.28 20.5591 145.28 22.6703C145.28 24.8395 143.523 27.2466 139.886 27.2466C137.079 27.2466 135.447 26.0049 134.636 24.7022C134.397 24.305 134.358 23.8186 134.531 23.3887C134.705 22.9587 135.07 22.6351 135.517 22.5147L135.627 22.4842C136.282 22.3147 136.969 22.6145 137.29 23.2103C137.729 23.9883 138.583 24.5466 139.856 24.5466Z" fill="#D71F28"/>
<path fill-rule="evenodd" clip-rule="evenodd" d="M148.68 10.4298C149.9 10.432 150.892 9.44718 150.899 8.22712C150.899 6.99712 149.901 6 148.671 6C147.451 6.00674 146.467 6.99888 146.469 8.21896C146.471 9.43904 147.46 10.4275 148.68 10.4298ZM149.865 13.019C149.551 12.7044 149.124 12.5271 148.68 12.5258C148.681 12.5258 148.682 12.5258 148.684 12.5258H148.678C148.678 12.5258 148.679 12.5258 148.68 12.5258C148.234 12.5268 147.807 12.7046 147.492 13.0201C147.176 13.3366 146.999 13.7657 147 14.2129V25.1349C147 26.065 147.754 26.819 148.684 26.819C149.131 26.8166 149.56 26.636 149.874 26.3171C150.188 25.9982 150.363 25.5674 150.359 25.1197V14.2129C150.359 13.7652 150.182 13.3356 149.865 13.019Z" fill="#D71F28"/>
<rect width="34.6881" height="34.6881" rx="9.20136" fill="#D71F28"/>
<path d="M27.1005 21.2861C26.6164 21.4217 26.2061 21.7441 25.9598 22.1824C24.2087 25.2937 20.916 27.2189 17.3458 27.2189C13.7756 27.2189 10.4828 25.2937 8.73169 22.1824C8.39925 21.5922 7.77719 21.2242 7.09983 21.217C6.42247 21.2098 5.79272 21.5645 5.4478 22.1475C5.10288 22.7305 5.09519 23.4532 5.42762 24.0434C7.84944 28.3493 12.4055 31.0141 17.3458 31.0141C22.286 31.0141 26.8421 28.3493 29.2639 24.0434C29.7759 23.13 29.4525 21.9745 28.5408 21.4594C28.1027 21.2128 27.5846 21.1504 27.1005 21.2861Z" fill="white"/>
<path d="M17.5241 21.5546C18.2925 21.5851 19.0414 21.308 19.6049 20.7846C20.1684 20.2612 20.4999 19.5347 20.5261 18.7661C20.5261 17.6983 19.7848 16.957 18.1831 16.6305L15.2237 15.9716C11.6878 15.1905 9.83594 12.8902 9.83594 10.1353C9.83594 6.64206 13.0424 3.67969 17.1946 3.67969C20.7915 3.67969 22.8234 5.17765 23.9064 6.7702C24.2683 7.32356 24.3443 8.01645 24.111 8.6351C23.8776 9.25376 23.363 9.72385 22.7258 9.90037C21.8416 10.1597 20.8926 9.80105 20.401 9.02172C19.8824 8.17359 18.9153 7.42003 17.2037 7.42003C15.4922 7.42003 14.3268 8.48782 14.3268 9.72037C14.3268 10.7882 15.1078 11.5692 16.3403 11.8163L19.3912 12.4265C23.1712 13.2502 25.1451 15.4773 25.1451 18.4305C25.1451 21.4814 22.677 25.3316 17.582 25.3316C14.5791 25.3926 11.7722 23.8455 10.2203 21.2739C9.88576 20.7192 9.82995 20.0399 10.0695 19.438C10.3091 18.8361 10.8164 18.3809 11.4407 18.2078L11.5932 18.1651C12.5124 17.9246 13.4765 18.3461 13.9241 19.1841C14.5403 20.2824 15.7393 21.5546 17.5241 21.5546Z" fill="white"/>
</svg>
