<svg width="32" height="32" viewBox="0 0 32 32" fill="none" xmlns="http://www.w3.org/2000/svg">
<mask id="mask0" mask-type="alpha" maskUnits="userSpaceOnUse" x="2" y="2" width="28" height="28">
<path fill-rule="evenodd" clip-rule="evenodd" d="M26.6667 2.66675H5.33334C3.85334 2.66675 2.66667 3.85341 2.66667 5.33341V20.0001C2.66667 21.4801 3.85334 22.6667 5.33334 22.6667H10.6667V29.3334L16 26.6667L21.3333 29.3334V22.6667H26.6667C28.1467 22.6667 29.3333 21.4801 29.3333 20.0001V5.33341C29.3333 3.85341 28.1467 2.66675 26.6667 2.66675ZM26.6667 20.0001H5.33334V17.3334H26.6667V20.0001ZM26.6667 13.3334H5.33334V5.33341H26.6667V13.3334Z" fill="white"/>
</mask>
<g mask="url(#mask0)">
<rect x="-17.3333" y="-17.3333" width="66.6667" height="66.6667" fill="#2C2B2B"/>
<mask id="mask1" mask-type="alpha" maskUnits="userSpaceOnUse" x="-18" y="-18" width="68" height="68">
<rect x="-17.3333" y="-17.3333" width="66.6667" height="66.6667" fill="white"/>
</mask>
<g mask="url(#mask1)">
</g>
</g>
</svg>
