<svg width="40" height="40" viewBox="0 0 40 40" fill="none" xmlns="http://www.w3.org/2000/svg">
<path fill-rule="evenodd" clip-rule="evenodd" d="M34.7583 20.0459C34.73 11.8818 28.1 5.28049 19.9358 5.28761C19.3052 5.28812 18.6753 5.32669 18.0493 5.40311V2.72095L12.8197 7.34736L18.0493 11.9802V9.14403C18.6727 9.03813 19.3035 8.98234 19.9358 8.9772C25.2759 8.9404 29.8791 12.7259 30.8743 17.9726C31.8694 23.2193 28.9721 28.4274 23.9894 30.3486C19.0066 32.2697 13.3629 30.3547 10.5782 25.798C7.79352 21.2413 8.6639 15.3454 12.6465 11.7877L10.1183 8.97078C5.09725 13.4975 3.79378 20.8569 6.9547 26.8327C10.1156 32.8086 16.9326 35.8727 23.5001 34.2696C30.0676 32.6665 34.7062 26.8061 34.7583 20.0459Z" fill="#FFE1E5" stroke="#D71F28" stroke-width="1.28333"/>
<path d="M20 38.9751C9.54571 38.9751 1.07083 30.5002 1.07083 20.0459" stroke="#E9EAEB" stroke-width="1.28333"/>
<path d="M23.4843 1.4375C32.4388 3.117 38.9279 10.9352 38.9292 20.0458" stroke="#E9EAEB" stroke-width="1.28333"/>
<path d="M25.775 25.3972C22.641 28.527 17.5643 28.527 14.4303 25.3972" stroke="#BCC0C4" stroke-width="1.28333"/>
<path d="M37.9667 26.9695C36.3804 31.0788 33.4371 34.5224 29.625 36.7292" stroke="#E9EAEB" stroke-width="1.28333"/>
</svg>
