<svg width="71" height="65" viewBox="0 0 71 65" fill="none" xmlns="http://www.w3.org/2000/svg">
<path fill-rule="evenodd" clip-rule="evenodd" d="M49.7188 40.9688C60.5919 40.9688 69.4062 32.1544 69.4062 21.2812C69.4062 10.4081 60.5919 1.59375 49.7188 1.59375C38.8456 1.59375 30.0312 10.4081 30.0312 21.2812C30.0312 32.1544 38.8456 40.9688 49.7188 40.9688Z" fill="#E9EAEB"/>
<path d="M26.75 11.4375H19.0938" stroke="#BCC0C4" stroke-width="1.20312"/>
<path d="M16.9063 11.4375H14.7188" stroke="#BCC0C4" stroke-width="1.20312"/>
<path d="M12.5313 11.4375H10.3438" stroke="#BCC0C4" stroke-width="1.20312"/>
<path d="M10.3438 5.96875H8.15625" stroke="#BCC0C4" stroke-width="1.20312"/>
<path d="M5.96875 5.96875H3.78125" stroke="#BCC0C4" stroke-width="1.20312"/>
<path d="M43.1563 5.96885H32.4047C31.9023 4.78162 30.7513 3.99858 29.4625 3.96729C29.0596 3.95425 28.6581 4.02116 28.2813 4.16416C27.5266 2.14562 25.6019 0.804428 23.4469 0.79541C20.6908 1.02604 18.5041 3.21281 18.2734 5.96885H12.5312" stroke="#BCC0C4" stroke-width="1.20312"/>
<path d="M69.4063 11.4376H65.0313C64.1685 10.0747 62.6259 9.2971 61.0172 9.41414C60.2301 7.99179 58.7485 7.09282 57.1234 7.05164C54.7079 7.11049 52.7423 9.0142 52.6063 11.4266H42.0625" stroke="#BCC0C4" stroke-width="1.20312"/>
<path d="M39.875 11.4375H37.6875" stroke="#BCC0C4" stroke-width="1.20312"/>
<path d="M35.5 11.4375H33.3125" stroke="#BCC0C4" stroke-width="1.20312"/>
<path d="M9.25 63.9375H21.2813" stroke="#BCC0C4" stroke-width="1.20312"/>
<path d="M25.6562 63.9375H37.6875" stroke="#BCC0C4" stroke-width="1.20312"/>
<path d="M42.0625 63.9375H54.0938" stroke="#BCC0C4" stroke-width="1.20312"/>
<path d="M58.4688 63.9375H70.5" stroke="#BCC0C4" stroke-width="1.20312"/>
<path d="M7.0625 63.9375H4.875" stroke="#BCC0C4" stroke-width="1.20312"/>
<path d="M2.6875 63.9375H0.5" stroke="#BCC0C4" stroke-width="1.20312"/>
<path fill-rule="evenodd" clip-rule="evenodd" d="M65.0312 39.875L59.6938 33.1703C59.0772 32.5588 58.2434 32.2166 57.375 32.2188H49.7188V51.9063H65.25C66.9414 51.9063 68.3125 50.5351 68.3125 48.8438V43.1563C68.3125 41.3441 66.8434 39.875 65.0312 39.875Z" fill="#FFE1E5" stroke="#D71F28" stroke-width="1.20312"/>
<path fill-rule="evenodd" clip-rule="evenodd" d="M54.0938 42.0625H59.5625L60.6562 40.9688L57.375 36.5938H54.0938V42.0625Z" fill="white" stroke="#D71F28" stroke-width="1.20312"/>
<path fill-rule="evenodd" clip-rule="evenodd" d="M61.75 51.9062C61.75 54.3225 59.7912 56.2812 57.375 56.2812C54.9588 56.2812 53 54.3225 53 51.9062C53 49.49 54.9588 47.5312 57.375 47.5312C59.7912 47.5312 61.75 49.49 61.75 51.9062Z" fill="#FFE1E5" stroke="#D71F28" stroke-width="1.20312"/>
<path fill-rule="evenodd" clip-rule="evenodd" d="M14.7188 40.9688V21.2812H49.7188V51.9062H14.7188V44.25" fill="white"/>
<path d="M14.7188 40.9688V21.2812H49.7188V51.9063H14.7188V44.25" stroke="#D71F28" stroke-width="1.20312"/>
<path fill-rule="evenodd" clip-rule="evenodd" d="M28.9375 51.9062C28.9375 54.3225 26.9787 56.2812 24.5625 56.2812C22.1463 56.2812 20.1875 54.3225 20.1875 51.9062C20.1875 49.49 22.1463 47.5312 24.5625 47.5312C26.9787 47.5312 28.9375 49.49 28.9375 51.9062Z" fill="#FFE1E5" stroke="#D71F28" stroke-width="1.20312"/>
<path d="M14.7188 25.6563H9.25" stroke="#D71F28" stroke-width="1.20312"/>
<path d="M10.3438 33.3125H0.5" stroke="#D71F28" stroke-width="1.20312"/>
<path d="M4.875 25.6563H7.0625" stroke="#D71F28" stroke-width="1.20312"/>
<path d="M15.8125 40.9688H0.5" stroke="#D71F28" stroke-width="1.20312"/>
</svg>
