<svg width="44" height="44" viewBox="0 0 44 44" fill="none" xmlns="http://www.w3.org/2000/svg">
<path d="M39.8405 15.1938C42.0074 20.4434 41.662 26.3817 38.9008 31.3501" stroke="#E9EAEB" stroke-width="1.30508"/>
<path d="M5.7517 31.3499C2.21509 24.9972 2.69802 17.1936 6.99153 11.3162" stroke="#E9EAEB" stroke-width="1.30508"/>
<path d="M33.4195 33.2888H32.7669V33.9414H33.4195V33.2888ZM33.4195 31.3501V30.6976H32.7669V31.3501H33.4195ZM34.7246 33.2888V33.9414H35.3771V33.2888H34.7246ZM34.7246 31.3501H35.3771V30.6976H34.7246V31.3501ZM33.4195 37.8126H32.7669V38.4651H33.4195V37.8126ZM33.4195 35.8738V35.2213H32.7669V35.8738H33.4195ZM34.7246 37.8126V38.4651H35.3771V37.8126H34.7246ZM34.7246 35.8738H35.3771V35.2213H34.7246V35.8738ZM32.7669 33.9288H33.4195V33.2763H32.7669V33.9288ZM30.8093 33.9288V33.2763H30.1568V33.9288H30.8093ZM32.7669 35.2339V35.8864H33.4195V35.2339H32.7669ZM30.8093 35.2339H30.1568V35.8864H30.8093V35.2339ZM35.3771 33.9288V33.2763H34.7246V33.9288H35.3771ZM37.3347 33.9288H37.9873V33.2763H37.3347V33.9288ZM35.3771 35.2339H34.7246V35.8864H35.3771V35.2339ZM37.3347 35.2339V35.8864H37.9873V35.2339H37.3347ZM34.072 33.2888V31.3501H32.7669V33.2888H34.072ZM34.7246 32.6363H33.4195V33.9414H34.7246V32.6363ZM34.072 31.3501V33.2888H35.3771V31.3501H34.072ZM33.4195 32.0026H34.7246V30.6976H33.4195V32.0026ZM34.072 37.8126V35.8738H32.7669V37.8126H34.072ZM34.7246 37.1601H33.4195V38.4651H34.7246V37.1601ZM34.072 35.8738V37.8126H35.3771V35.8738H34.072ZM33.4195 36.5264H34.7246V35.2213H33.4195V36.5264ZM32.7669 33.2763H30.8093V34.5813H32.7669V33.2763ZM33.4195 35.2339V33.9288H32.1144V35.2339H33.4195ZM30.8093 35.8864H32.7669V34.5813H30.8093V35.8864ZM30.1568 33.9288V35.2339H31.4619V33.9288H30.1568ZM35.3771 34.5813H37.3347V33.2763H35.3771V34.5813ZM36.0297 35.2339V33.9288H34.7246V35.2339H36.0297ZM37.3347 34.5813H35.3771V35.8864H37.3347V34.5813ZM36.6822 33.9288V35.2339H37.9873V33.9288H36.6822Z" fill="#D71F28"/>
<path d="M13.393 29.0408L13.8566 28.5816L13.3975 28.1179L12.9338 28.5771L13.393 29.0408ZM13.8522 29.5044L14.3158 29.0452L14.3158 29.0452L13.8522 29.5044ZM12.9293 29.4999L12.4702 29.0363L12.4702 29.0363L12.9293 29.4999ZM12.4657 29.9591L12.9249 30.4228L12.9249 30.4228L12.4657 29.9591ZM11.1606 31.2516L10.7014 30.788V30.788L11.1606 31.2516ZM10.697 31.7108L11.1561 32.1744V32.1744L10.697 31.7108ZM10.632 31.7751L10.1728 32.2388L10.632 32.6935L11.0912 32.2388L10.632 31.7751ZM9.7346 30.8864L10.1938 30.4228L9.73013 29.9636L9.27095 30.4272L9.7346 30.8864ZM8.81625 31.8137L8.3526 31.3545L7.89342 31.8182L8.35707 32.2774L8.81625 31.8137ZM9.70465 32.6935L10.1638 33.1572L10.632 32.6935L10.1638 32.2299L9.70465 32.6935ZM9.66663 32.7312L9.20745 32.2675L9.20745 32.2676L9.66663 32.7312ZM9.20298 33.1904L8.7438 32.7267L8.7438 32.7267L9.20298 33.1904ZM7.89789 34.4829L8.35707 34.9465L8.35707 34.9465L7.89789 34.4829ZM7.43425 34.942L6.97507 34.4784L6.97507 34.4784L7.43425 34.942ZM6.9706 35.4012L6.51142 34.9376L6.04778 35.3968L6.50695 35.8604L6.9706 35.4012ZM7.42978 35.8649L7.89342 35.4057H7.89342L7.42978 35.8649ZM7.88895 36.3285L7.42531 36.7877L7.42531 36.7877L7.88895 36.3285ZM8.80731 37.2558L9.27095 36.7966L8.80731 37.2558ZM9.26648 37.7195L8.80283 38.1786L8.80283 38.1786L9.26648 37.7195ZM9.72566 38.1831L9.26201 38.6423L9.72119 39.1059L10.1848 38.6468L9.72566 38.1831ZM10.1893 37.7239L9.73013 37.2603L9.73013 37.2603L10.1893 37.7239ZM10.653 37.2648L11.1121 37.7284L11.1121 37.7284L10.653 37.2648ZM11.958 35.9723L11.4989 35.5086L11.4989 35.5086L11.958 35.9723ZM12.023 35.9079L12.4822 35.4443L12.023 34.9895L11.5638 35.4443L12.023 35.9079ZM12.9249 36.8011L13.384 36.3375L13.384 36.3375L12.9249 36.8011ZM13.3885 37.2603L12.9293 37.7239L13.393 38.1831L13.8522 37.7195L13.3885 37.2603ZM13.8477 36.7966L13.384 36.3375L13.384 36.3375L13.8477 36.7966ZM14.766 35.8693L14.3024 35.4102L14.3024 35.4102L14.766 35.8693ZM15.2252 35.4057L15.6889 35.8649L16.148 35.4012L15.6844 34.942L15.2252 35.4057ZM14.7616 34.9465L14.3024 35.4102H14.3024L14.7616 34.9465ZM13.8777 34.0711L13.4185 33.6075L12.9503 34.0711L13.4185 34.5348L13.8777 34.0711ZM13.9157 34.0335L13.4565 33.5699L13.4565 33.5699L13.9157 34.0335ZM15.2207 32.741L15.6799 33.2047V33.2047L15.2207 32.741ZM15.6844 32.2818L15.2252 31.8182V31.8182L15.6844 32.2818ZM16.148 31.8227L16.6072 32.2863L17.0709 31.8271L16.6117 31.3635L16.148 31.8227ZM15.6889 31.359L16.1525 30.8998V30.8998L15.6889 31.359ZM15.2297 30.8954L15.6933 30.4362V30.4362L15.2297 30.8954ZM14.3113 29.9681L13.8477 30.4272L13.8477 30.4272L14.3113 29.9681ZM10.5389 32.6846L10.0752 32.2254L9.62048 32.6846L10.0752 33.1438L10.5389 32.6846ZM10.5894 32.7357L10.1258 33.1948L10.1258 33.1948L10.5894 32.7357ZM11.0486 33.1993L11.5123 32.7401L11.5123 32.7401L11.0486 33.1993ZM11.967 34.1266L11.5033 34.5858L11.5033 34.5858L11.967 34.1266ZM12.0185 34.1787L11.5549 34.6378L12.0185 35.106L12.4822 34.6378L12.0185 34.1787ZM12.1206 34.0756L12.5842 34.5348L13.039 34.0756L12.5842 33.6164L12.1206 34.0756ZM12.07 34.0246L11.6064 34.4837L11.6064 34.4837L12.07 34.0246ZM11.1517 33.0973L11.6153 32.6381L11.6153 32.6381L11.1517 33.0973ZM10.6925 32.6336L10.2288 33.0928L10.2288 33.0928L10.6925 32.6336ZM10.6409 32.5816L11.1046 32.1224L10.6409 31.6542L10.1773 32.1224L10.6409 32.5816ZM12.9973 33.1062L12.5337 33.5654L12.9928 34.029L13.4565 33.5699L12.9973 33.1062ZM14.3024 31.8137L14.7616 32.2774L15.2252 31.8182L14.766 31.3545L14.3024 31.8137ZM12.079 32.1789L11.6198 31.7153L11.1561 32.1744L11.6153 32.6381L12.079 32.1789ZM13.384 30.8864L13.8477 30.4272L13.3885 29.9636L12.9249 30.4228L13.384 30.8864ZM11.0397 35.045L11.4989 35.5086L11.9625 35.0494L11.5033 34.5858L11.0397 35.045ZM10.1213 34.1177L10.585 33.6585L10.1258 33.1948L9.66216 33.654L10.1213 34.1177ZM9.7346 36.3375L9.27095 36.7966L9.73013 37.2603L10.1938 36.8011L9.7346 36.3375ZM8.81625 35.4102L8.35707 34.9465L7.89342 35.4057L8.3526 35.8693L8.81625 35.4102ZM12.9293 29.4999L13.3885 29.9636L14.3158 29.0452L13.8566 28.5816L12.9293 29.4999ZM13.3885 29.9636L13.8522 29.5044L12.9338 28.5771L12.4702 29.0363L13.3885 29.9636ZM12.9249 30.4228L13.3885 29.9636L12.4702 29.0363L12.0065 29.4955L12.9249 30.4228ZM11.6198 31.7153L12.9249 30.4228L12.0065 29.4955L10.7014 30.788L11.6198 31.7153ZM11.1561 32.1744L11.6198 31.7153L10.7014 30.788L10.2378 31.2472L11.1561 32.1744ZM11.0912 32.2388L11.1561 32.1744L10.2378 31.2472L10.1728 31.3115L11.0912 32.2388ZM9.27542 31.3501L10.1728 32.2388L11.0912 31.3115L10.1938 30.4228L9.27542 31.3501ZM9.27989 32.2729L10.1982 31.3456L9.27095 30.4272L8.3526 31.3545L9.27989 32.2729ZM10.1638 32.2299L9.27542 31.3501L8.35707 32.2774L9.24547 33.1572L10.1638 32.2299ZM10.1258 33.1948L10.1638 33.1572L9.24547 32.2299L9.20745 32.2675L10.1258 33.1948ZM9.66216 33.654L10.1258 33.1948L9.20745 32.2676L8.7438 32.7267L9.66216 33.654ZM8.35707 34.9465L9.66216 33.654L8.7438 32.7267L7.43872 34.0192L8.35707 34.9465ZM7.89342 35.4057L8.35707 34.9465L7.43872 34.0192L6.97507 34.4784L7.89342 35.4057ZM7.42978 35.8649L7.89342 35.4057L6.97507 34.4784L6.51142 34.9376L7.42978 35.8649ZM7.89342 35.4057L7.43425 34.9421L6.50695 35.8604L6.96613 36.324L7.89342 35.4057ZM8.3526 35.8693L7.89342 35.4057L6.96613 36.324L7.42531 36.7877L8.3526 35.8693ZM9.27095 36.7966L8.3526 35.8693L7.42531 36.7877L8.34366 37.715L9.27095 36.7966ZM9.73013 37.2603L9.27095 36.7966L8.34366 37.715L8.80283 38.1786L9.73013 37.2603ZM10.1893 37.7239L9.73013 37.2603L8.80283 38.1786L9.26201 38.6423L10.1893 37.7239ZM9.73013 37.2603L9.26648 37.7195L10.1848 38.6468L10.6485 38.1876L9.73013 37.2603ZM10.1938 36.8011L9.73013 37.2603L10.6485 38.1876L11.1121 37.7284L10.1938 36.8011ZM11.4989 35.5086L10.1938 36.8011L11.1121 37.7284L12.4172 36.4359L11.4989 35.5086ZM11.5638 35.4443L11.4989 35.5086L12.4172 36.4359L12.4822 36.3716L11.5638 35.4443ZM13.384 36.3375L12.4822 35.4443L11.5638 36.3716L12.4657 37.2648L13.384 36.3375ZM13.8477 36.7966L13.384 36.3375L12.4657 37.2648L12.9293 37.7239L13.8477 36.7966ZM13.384 36.3375L12.9249 36.8011L13.8522 37.7195L14.3113 37.2558L13.384 36.3375ZM14.3024 35.4102L13.384 36.3375L14.3113 37.2558L15.2297 36.3285L14.3024 35.4102ZM14.7616 34.9465L14.3024 35.4102L15.2297 36.3285L15.6889 35.8649L14.7616 34.9465ZM14.3024 35.4102L14.766 35.8693L15.6844 34.942L15.2207 34.4829L14.3024 35.4102ZM13.4185 34.5348L14.3024 35.4102L15.2207 34.4829L14.3368 33.6075L13.4185 34.5348ZM13.4565 33.5699L13.4185 33.6075L14.3368 34.5348L14.3748 34.4971L13.4565 33.5699ZM14.7616 32.2774L13.4565 33.5699L14.3748 34.4972L15.6799 33.2047L14.7616 32.2774ZM15.2252 31.8182L14.7616 32.2774L15.6799 33.2047L16.1436 32.7455L15.2252 31.8182ZM15.6889 31.359L15.2252 31.8182L16.1436 32.7455L16.6072 32.2863L15.6889 31.359ZM15.2252 31.8182L15.6844 32.2818L16.6117 31.3635L16.1525 30.8998L15.2252 31.8182ZM14.766 31.3545L15.2252 31.8182L16.1525 30.8998L15.6933 30.4362L14.766 31.3545ZM13.8477 30.4272L14.766 31.3545L15.6933 30.4362L14.775 29.5089L13.8477 30.4272ZM13.3885 29.9636L13.8477 30.4272L14.775 29.5089L14.3158 29.0452L13.3885 29.9636ZM10.0752 33.1438L10.1258 33.1948L11.0531 32.2765L11.0025 32.2254L10.0752 33.1438ZM10.1258 33.1948L10.585 33.6585L11.5123 32.7401L11.0531 32.2765L10.1258 33.1948ZM10.585 33.6585L11.5033 34.5858L12.4306 33.6674L11.5123 32.7401L10.585 33.6585ZM11.5033 34.5858L11.5549 34.6378L12.4822 33.7195L12.4306 33.6674L11.5033 34.5858ZM12.4822 34.6378L12.5842 34.5348L11.6569 33.6164L11.5549 33.7195L12.4822 34.6378ZM12.5842 33.6164L12.5337 33.5654L11.6064 34.4837L11.6569 34.5348L12.5842 33.6164ZM12.5337 33.5654L11.6153 32.6381L10.688 33.5564L11.6064 34.4837L12.5337 33.5654ZM11.6153 32.6381L11.1561 32.1744L10.2288 33.0928L10.688 33.5564L11.6153 32.6381ZM11.1561 32.1744L11.1046 32.1224L10.1773 33.0407L10.2288 33.0928L11.1561 32.1744ZM10.1773 32.1224L10.0752 32.2254L11.0025 33.1438L11.1046 33.0407L10.1773 32.1224ZM13.4565 33.5699L14.7616 32.2774L13.8432 31.3501L12.5381 32.6426L13.4565 33.5699ZM11.6153 32.6381L12.5337 33.5654L13.461 32.647L12.5426 31.7197L11.6153 32.6381ZM12.9249 30.4228L11.6198 31.7153L12.5381 32.6426L13.8432 31.3501L12.9249 30.4228ZM14.766 31.3545L13.8477 30.4272L12.9204 31.3456L13.8387 32.2729L14.766 31.3545ZM11.5033 34.5858L10.585 33.6585L9.65768 34.5768L10.576 35.5041L11.5033 34.5858ZM10.1938 36.8011L11.4989 35.5086L10.5805 34.5813L9.27542 35.8738L10.1938 36.8011ZM8.3526 35.8693L9.27095 36.7966L10.1982 35.8783L9.27989 34.951L8.3526 35.8693ZM9.66216 33.654L8.35707 34.9465L9.27542 35.8738L10.5805 34.5813L9.66216 33.654Z" fill="#D71F28"/>
<path d="M23.6314 11.3938C29.4585 12.0831 33.7354 17.148 33.3896 22.9499C33.0438 28.7518 28.1949 33.2832 22.3263 33.2887" stroke="#D71F28" stroke-width="1.30508"/>
<path d="M11.8856 26.025C10.4396 22.0213 11.4563 17.5508 14.4958 14.5476" stroke="#D71F28" stroke-width="1.30508"/>
<path d="M34.2352 13.2549C37.5298 17.5069 38.2578 23.1862 36.1406 28.1186" stroke="#D71F28" stroke-width="1.30508"/>
<path d="M7.3178 22.3025C7.3178 14.0934 14.0373 7.43872 22.3263 7.43872" stroke="#D71F28" stroke-width="1.30508"/>
<path d="M28.1992 35.9836C25.3158 37.1969 22.1213 37.4861 19.0636 36.8108C18.1688 36.6184 17.2947 36.3414 16.4534 35.9836" stroke="#D71F28" stroke-width="1.30508"/>
<path d="M31.4619 7.43875H30.8093V8.09129H31.4619V7.43875ZM31.4619 5.5V4.84746H30.8093V5.5H31.4619ZM32.7669 7.43875V8.09129H33.4195V7.43875H32.7669ZM32.7669 5.5H33.4195V4.84746H32.7669V5.5ZM28.8517 8.07871V7.42617H28.1991V8.07871H28.8517ZM30.8093 8.07871H31.4619V7.42617H30.8093V8.07871ZM28.8517 9.38379H28.1991V10.0363H28.8517V9.38379ZM30.8093 9.38379V10.0363H31.4619V9.38379H30.8093ZM33.4195 8.07871V7.42617H32.7669V8.07871H33.4195ZM35.3771 8.07871H36.0297V7.42617H35.3771V8.07871ZM33.4195 9.38379H32.7669V10.0363H33.4195V9.38379ZM35.3771 9.38379V10.0363H36.0297V9.38379H35.3771ZM31.4619 10.0237V9.37121H30.8093V10.0237H31.4619ZM31.4619 11.9625H30.8093V12.615H31.4619V11.9625ZM32.7669 10.0237H33.4195V9.37121H32.7669V10.0237ZM32.7669 11.9625V12.615H33.4195V11.9625H32.7669ZM32.1144 7.43875V5.5H30.8093V7.43875H32.1144ZM32.7669 6.78621H31.4619V8.09129H32.7669V6.78621ZM32.1144 5.5V7.43875H33.4195V5.5H32.1144ZM31.4619 6.15254H32.7669V4.84746H31.4619V6.15254ZM28.8517 8.73125H30.8093V7.42617H28.8517V8.73125ZM29.5042 9.38379V8.07871H28.1991V9.38379H29.5042ZM30.8093 8.73125H28.8517V10.0363H30.8093V8.73125ZM30.1568 8.07871V9.38379H31.4619V8.07871H30.1568ZM33.4195 8.73125H35.3771V7.42617H33.4195V8.73125ZM34.072 9.38379V8.07871H32.7669V9.38379H34.072ZM35.3771 8.73125H33.4195V10.0363H35.3771V8.73125ZM34.7246 8.07871V9.38379H36.0297V8.07871H34.7246ZM30.8093 10.0237V11.9625H32.1144V10.0237H30.8093ZM32.7669 9.37121H31.4619V10.6763H32.7669V9.37121ZM33.4195 11.9625V10.0237H32.1144V11.9625H33.4195ZM31.4619 12.615H32.7669V11.31H31.4619V12.615Z" fill="#D71F28"/>
<path fill-rule="evenodd" clip-rule="evenodd" d="M22.4503 15.1938L24.6297 19.569L29.5042 20.2669L25.9805 23.6726L26.8092 28.4807L22.4503 26.2059L18.0913 28.4807L18.9265 23.6726L15.4028 20.2669L20.2708 19.569L22.4503 15.1938Z" fill="#FFE1E5" stroke="#D71F28" stroke-width="1.30508"/>
</svg>
