<svg width="44" height="44" viewBox="0 0 44 44" fill="none" xmlns="http://www.w3.org/2000/svg">
<path fill-rule="evenodd" clip-rule="evenodd" d="M22.2661 36.2823C31.5258 36.2823 39.0323 28.7758 39.0323 19.5161C39.0323 10.2565 31.5258 2.75 22.2661 2.75C13.0065 2.75 5.5 10.2565 5.5 19.5161C5.5 28.7758 13.0065 36.2823 22.2661 36.2823Z" fill="#E9EAEB"/>
<path fill-rule="evenodd" clip-rule="evenodd" d="M32.8226 15.1693C32.8226 10.5989 28.2336 5.85474 22.5766 5.85474C16.9196 5.85474 12.3307 10.5989 12.3307 15.1693V21.9999C13.1186 22.4896 13.9501 22.9053 14.8145 23.2418C14.835 26.7737 16.751 30.0223 19.8319 31.7491L19.9996 31.836C21.637 32.8041 23.6715 32.8041 25.3089 31.836L25.3958 31.7801C26.8898 30.8862 28.1281 29.6222 28.9912 28.1102C29.2298 28.166 29.473 28.1992 29.7178 28.2096C31.7732 28.2096 32.8226 25.7257 32.8226 25.7257V15.1693Z" fill="white"/>
<path d="M32.8226 23.2418V15.3742C32.8226 10.8225 28.2336 5.85474 22.5766 5.85474C16.9196 5.85474 12.3307 10.8225 12.3307 15.3742V21.9999" stroke="#D71F28" stroke-width="1.24194"/>
<path d="M17.2984 29.4517V33.1775" stroke="#D71F28" stroke-width="1.24194"/>
<path d="M27.8548 29.4517V33.1775" stroke="#D71F28" stroke-width="1.24194"/>
<rect x="22.8847" y="38.1467" width="8.78048" height="3.51468" transform="rotate(-45 22.8847 38.1467)" fill="#FFE1E5" stroke="#D71F28" stroke-width="1.24194"/>
<rect x="13.5723" y="34.4211" width="3.51468" height="8.78048" transform="rotate(-45 13.5723 34.4211)" fill="#FFE1E5" stroke="#D71F28" stroke-width="1.24194"/>
<path fill-rule="evenodd" clip-rule="evenodd" d="M12.3307 24.4839H11.9022C10.4241 24.4839 9.22582 23.2856 9.22582 21.8075V20.9506C9.22582 19.4725 10.4241 18.2742 11.9022 18.2742H12.3307V24.4839Z" fill="#FFE1E5" stroke="#D71F28" stroke-width="1.24194"/>
<path fill-rule="evenodd" clip-rule="evenodd" d="M32.8226 18.2742H33.251C34.7292 18.2742 35.9274 19.4724 35.9274 20.9505V21.8323C35.9274 23.2967 34.7403 24.4838 33.2759 24.4838H32.8226V18.2742Z" fill="#FFE1E5" stroke="#D71F28" stroke-width="1.24194"/>
<path d="M30.3387 20.758V23.0122C30.3444 26.603 28.4563 29.9307 25.371 31.7678L25.284 31.8237C23.6467 32.7917 21.6121 32.7917 19.9748 31.8237L19.8071 31.7368C16.7158 29.8964 14.8196 26.5663 14.8145 22.9687V18.2742" stroke="#D71F28" stroke-width="1.24194"/>
<path d="M18.5403 10.8225C18.5403 15.1693 27.1966 20.758 31.5806 20.758" stroke="#D71F28" stroke-width="1.24194"/>
<path d="M14.8145 18.2742C14.8145 16.4764 17.7277 13.0704 19.7823 13.9274" stroke="#D71F28" stroke-width="1.24194"/>
<path d="M22.8871 28.2096H29.252C30.659 28.2079 31.9231 27.3495 32.4438 26.0424L32.8226 25.1047V23.8628" stroke="#D71F28" stroke-width="1.24194"/>
<rect x="24.75" y="29.4517" width="4.34677" height="3.10484" rx="1.24194" transform="rotate(180 24.75 29.4517)" fill="#FFE1E5" stroke="#D71F28" stroke-width="1.24194"/>
</svg>
