<svg width="61" height="70" viewBox="0 0 61 70" fill="none" xmlns="http://www.w3.org/2000/svg">
<path fill-rule="evenodd" clip-rule="evenodd" d="M30.4839 60.9677C47.3196 60.9677 60.9677 47.3196 60.9677 30.4839C60.9677 13.6481 47.3196 0 30.4839 0C13.6481 0 0 13.6481 0 30.4839C0 47.3196 13.6481 60.9677 30.4839 60.9677Z" fill="#E9EAEB"/>
<path fill-rule="evenodd" clip-rule="evenodd" d="M49.6775 22.5806C49.6775 14.2709 41.3339 5.64514 31.0484 5.64514C20.763 5.64514 12.4194 14.2709 12.4194 22.5806V35C13.852 35.8903 15.3638 36.6462 16.9355 37.258C16.9727 43.6795 20.4563 49.5862 26.0581 52.7258L26.363 52.8839C29.34 54.6439 33.0391 54.6439 36.0162 52.8839L36.1742 52.7822C38.8906 51.1569 41.142 48.8587 42.7113 46.1097C43.145 46.211 43.5873 46.2715 44.0323 46.2903C47.7694 46.2903 49.6775 41.7742 49.6775 41.7742V22.5806Z" fill="white"/>
<path d="M49.6775 37.258V22.9532C49.6775 14.6774 41.3339 5.64514 31.0484 5.64514C20.763 5.64514 12.4194 14.6774 12.4194 22.9532V35" stroke="#D71F28" stroke-width="1.24194"/>
<path d="M21.4516 48.5485V55.3227" stroke="#D71F28" stroke-width="1.24194"/>
<path d="M40.6451 48.5485V55.3227" stroke="#D71F28" stroke-width="1.24194"/>
<rect x="31.6086" y="64.3579" width="15.9645" height="6.39032" transform="rotate(-45 31.6086 64.3579)" fill="#FFE1E5" stroke="#D71F28" stroke-width="1.24194"/>
<rect x="14.677" y="57.5841" width="6.39032" height="15.9645" transform="rotate(-45 14.677 57.5841)" fill="#FFE1E5" stroke="#D71F28" stroke-width="1.24194"/>
<path fill-rule="evenodd" clip-rule="evenodd" d="M12.4194 39.5161H11.6404C8.95288 39.5161 6.77424 37.3375 6.77424 34.65V33.0919C6.77424 30.4044 8.95288 28.2258 11.6404 28.2258H12.4194L12.4194 39.5161Z" fill="#FFE1E5" stroke="#D71F28" stroke-width="1.24194"/>
<path fill-rule="evenodd" clip-rule="evenodd" d="M49.6774 28.2257H50.4564C53.1439 28.2257 55.3226 30.4043 55.3226 33.0918V34.6951C55.3226 37.3576 53.1641 39.516 50.5016 39.516H49.6774V28.2257Z" fill="#FFE1E5" stroke="#D71F28" stroke-width="1.24194"/>
<path d="M45.1613 32.7418V36.8402C45.1716 43.369 41.7387 49.4195 36.129 52.7596L35.9709 52.8612C32.9939 54.6213 29.2948 54.6213 26.3177 52.8612L26.0129 52.7031C20.3923 49.357 16.9448 43.3024 16.9355 36.7612V28.2257" stroke="#D71F28" stroke-width="1.24194"/>
<path d="M23.7097 14.6776C23.7097 22.5808 39.4484 32.7421 47.4194 32.7421" stroke="#D71F28" stroke-width="1.24194"/>
<path d="M16.9355 28.2258C16.9355 24.9572 22.2321 18.7646 25.9677 20.3226" stroke="#D71F28" stroke-width="1.24194"/>
<path d="M31.6129 46.2903H43.1855C45.7436 46.2872 48.0421 44.7266 48.9887 42.35L49.6774 40.6451V38.3871" stroke="#D71F28" stroke-width="1.24194"/>
<rect x="35" y="48.5485" width="7.90323" height="5.64516" rx="1.24194" transform="rotate(180 35 48.5485)" fill="#FFE1E5" stroke="#D71F28" stroke-width="1.24194"/>
</svg>
