<svg width="44" height="44" viewBox="0 0 44 44" fill="none" xmlns="http://www.w3.org/2000/svg">
<path fill-rule="evenodd" clip-rule="evenodd" d="M17.0585 43.1195C26.0999 43.1195 33.4294 35.7754 33.4294 26.716C33.4294 17.6566 26.0999 10.3125 17.0585 10.3125C8.01703 10.3125 0.6875 17.6566 0.6875 26.716C0.6875 35.7754 8.01703 43.1195 17.0585 43.1195Z" fill="#E9EAEB"/>
<path fill-rule="evenodd" clip-rule="evenodd" d="M22.2465 9.30078H31.0481C31.3956 11.7913 33.454 13.4333 35.9446 13.7801C35.9446 18.463 35.9446 23.8862 35.9446 26.3294C35.9446 33.0427 23.9637 38.8196 22.2465 38.8196C20.5292 38.8196 8.54836 33.0427 8.54836 26.3294C8.54836 23.8862 8.54836 18.463 8.54836 13.7801C11.0389 13.4333 13.0974 11.7913 13.4442 9.30078H22.2465Z" fill="#FFFFFE"/>
<path fill-rule="evenodd" clip-rule="evenodd" d="M22.2465 9.30078H31.0481C31.3956 11.7913 33.454 13.4333 35.9446 13.7801C35.9446 18.463 35.9446 23.8862 35.9446 26.3294C35.9446 33.0427 23.9637 38.8196 22.2465 38.8196C20.5292 38.8196 8.54836 33.0427 8.54836 26.3294C8.54836 23.8862 8.54836 18.463 8.54836 13.7801C11.0389 13.4333 13.0974 11.7913 13.4442 9.30078H22.2465Z" stroke="#D71F28" stroke-width="1.24528"/>
<path d="M39.0578 20.5083V26.33H40.3031V20.5083H39.0578ZM39.0578 26.33C39.0578 30.2664 36.4993 34.1542 31.3648 37.7955L32.0851 38.8112C37.3599 35.0705 40.3031 30.8564 40.3031 26.33H39.0578ZM26.605 6.81014H31.5861V5.56486H26.605V6.81014ZM12.9068 6.81014H17.888V5.56486H12.9068V6.81014ZM13.1282 37.7955C7.99366 34.1542 5.43514 30.2664 5.43514 26.33H4.18986C4.18986 30.8564 7.133 35.0705 12.4078 38.8112L13.1282 37.7955ZM5.43514 26.33V20.5083H4.18986V26.33H5.43514Z" fill="#B6B9B9"/>
<path d="M30.7723 23.2422C30.7723 28.2694 26.6971 32.3452 21.6693 32.3452C16.6421 32.3452 12.5669 28.2694 12.5669 23.2422C12.5669 18.2143 16.6421 14.1392 21.6693 14.1392C22.8149 14.1392 23.9108 14.3509 24.9201 14.7363" stroke="#D71F28" stroke-width="1.24528"/>
<path fill-rule="evenodd" clip-rule="evenodd" d="M30.4529 14.2002L22.2465 22.4066L18.8269 18.9877L16.0916 21.7229L22.2465 27.8778L33.1881 16.9361L30.4529 14.2002Z" fill="#FFE1E5"/>
<path fill-rule="evenodd" clip-rule="evenodd" d="M30.4529 14.2002L22.2465 22.4066L18.8269 18.9877L16.0916 21.7229L22.2465 27.8778L33.1881 16.9361L30.4529 14.2002Z" stroke="#D71F28" stroke-width="1.24528"/>
<path d="M39.0578 13.0366V14.2818H40.3031V13.0366H39.0578ZM39.0578 15.5271V16.7724H40.3031V15.5271H39.0578ZM39.0578 18.0177V19.263H40.3031V18.0177H39.0578ZM4.18986 13.0366V14.2818H5.43514V13.0366H4.18986ZM4.18986 15.5271V16.7724H5.43514V15.5271H4.18986ZM4.18986 18.0177V19.263H5.43514V18.0177H4.18986ZM21.6238 6.81014H22.8691V5.56486H21.6238V6.81014ZM19.1333 6.81014H20.3785V5.56486H19.1333V6.81014ZM24.1144 6.81014H25.3597V5.56486H24.1144V6.81014Z" fill="#B6B9B9"/>
</svg>
