<svg width="28" height="28" viewBox="0 0 28 28" fill="none" xmlns="http://www.w3.org/2000/svg">
<path d="M10.5328 5.10187L8.98091 4.8822C8.16421 4.76661 7.40306 5.31999 7.26054 6.13293L6.98973 7.67774C6.90825 8.14264 6.61692 8.54385 6.20023 8.76507L4.81569 9.50016C4.08706 9.88699 3.79635 10.7824 4.15859 11.5239L4.84692 12.9329C5.05407 13.357 5.05407 13.8529 4.84692 14.277L4.15859 15.686C3.79635 16.4275 4.0871 17.3229 4.81569 17.7097L6.20023 18.4448C6.61688 18.6661 6.90821 19.0673 6.98973 19.5322L7.26054 21.077C7.40306 21.8899 8.16421 22.4433 8.98091 22.3277L10.5328 22.108C10.6294 22.0944 10.7261 22.0906 10.8218 22.0953L10.9036 21.2372C10.3398 21.317 9.81442 20.9351 9.71605 20.3739L9.16103 17.6963C9.10477 17.3754 8.90368 17.0984 8.61606 16.9457L7.66037 16.4383C7.15743 16.1713 6.95673 15.5532 7.20679 15.0414L7.68192 14.0688C7.82488 13.7761 7.82488 13.4337 7.68192 13.141L7.20679 12.1684C6.95673 11.6566 7.15743 11.0385 7.66037 10.7715L8.61606 10.264C8.90368 10.1113 9.10477 9.83439 9.16103 9.51347L9.69472 6.8156C9.7931 6.25444 10.3185 5.87248 10.8822 5.95228L10.9865 5.09753C10.8379 5.12124 10.6852 5.12341 10.5328 5.10187Z" fill="#CEE1F2"/>
<path d="M14 24.933C13.396 24.933 12.792 24.7052 12.3214 24.2497L11.1949 23.1592C11.0511 23.0199 10.8551 22.9562 10.6568 22.9842L9.10489 23.2038C8.98855 23.2203 8.87292 23.2283 8.75888 23.2283C7.60184 23.2283 6.59506 22.4045 6.38915 21.2299L6.11834 19.6851C6.08371 19.4875 5.96237 19.3203 5.78539 19.2263L4.40084 18.4913C3.24437 17.8773 2.78885 16.4745 3.36367 15.2978L4.05201 13.8888C4.14008 13.7085 4.14008 13.5017 4.05201 13.3214L3.36367 11.9123C2.78885 10.7356 3.24442 9.33287 4.40084 8.71889L5.78543 7.9838C5.96237 7.88985 6.08375 7.72269 6.11834 7.52509L6.38915 5.98028C6.61536 4.68987 7.80837 3.82283 9.10489 4.00631L10.6568 4.22598C10.8549 4.25407 11.0511 4.19024 11.1949 4.05099L12.3214 2.96047C13.2627 2.04929 14.7373 2.04933 15.6785 2.96047L16.805 4.05099C16.9489 4.19024 17.1449 4.25412 17.3431 4.22598L18.895 4.00631C20.1917 3.82292 21.3846 4.68987 21.6108 5.98028L21.8816 7.52509C21.9162 7.72264 22.0376 7.88985 22.2145 7.9838L23.5991 8.71885C24.7555 9.33287 25.2111 10.7356 24.6362 11.9123L23.9479 13.3214C23.8598 13.5017 23.8598 13.7085 23.9479 13.8887L24.6363 15.2978C25.2112 16.4745 24.7556 17.8772 23.5991 18.4912L22.2145 19.2263C22.0376 19.3203 21.9162 19.4875 21.8816 19.6851L21.6108 21.2299C21.3846 22.5203 20.1915 23.3874 18.895 23.2038L17.3431 22.9842C17.1451 22.9561 16.9489 23.0199 16.8051 23.1592L15.6785 24.2497C15.2079 24.7052 14.604 24.933 14 24.933ZM10.7527 21.2079C11.3746 21.2079 11.97 21.4468 12.4256 21.8878L13.5521 22.9784C13.8033 23.2215 14.1968 23.2215 14.4479 22.9784L15.5744 21.8879C16.1134 21.3661 16.8484 21.127 17.5911 21.2323L19.143 21.4519C19.4889 21.5007 19.8076 21.2692 19.8681 20.9244L20.1389 19.3796C20.2684 18.6407 20.7225 18.0152 21.3849 17.6636L22.7694 16.9285C23.0786 16.7644 23.2002 16.3893 23.0465 16.0745L22.3582 14.6654C22.029 13.9916 22.029 13.2186 22.3582 12.5447L23.0464 11.1357C23.2002 10.8209 23.0785 10.4458 22.7694 10.2817L21.3849 9.54661C20.7225 9.19495 20.2683 8.56947 20.1388 7.83062L19.868 6.28581C19.8076 5.941 19.4891 5.70921 19.143 5.75827L17.5911 5.97794C16.8484 6.08286 16.1134 5.84404 15.5744 5.32229L14.4479 4.23178C14.1967 3.98862 13.8032 3.98862 13.552 4.23178L12.4255 5.32225C11.8865 5.844 11.1514 6.08304 10.4088 5.9779L8.85691 5.75823C8.51073 5.70935 8.19237 5.94096 8.13195 6.28577L7.86114 7.83057C7.73162 8.56947 7.27746 9.1949 6.61514 9.54657L5.23055 10.2817C4.92144 10.4458 4.79971 10.8209 4.95347 11.1357L5.6418 12.5447C5.971 13.2185 5.971 13.9915 5.6418 14.6654L4.95347 16.0744C4.79971 16.3892 4.9214 16.7643 5.23055 16.9285L6.6151 17.6635C7.27746 18.0152 7.73162 18.6407 7.86114 19.3795L8.13195 20.9243C8.19237 21.2691 8.51073 21.5011 8.85691 21.4519L10.4088 21.2322C10.5238 21.2159 10.6387 21.2079 10.7527 21.2079Z" fill="#125BB8"/>
<path d="M10.9729 11.9891C10.9099 11.9219 10.828 11.8883 10.7272 11.8883C10.6264 11.8883 10.5424 11.9219 10.4752 11.9891C10.4122 12.0563 10.3807 12.1403 10.3807 12.2411V14.8594L8.25173 12.1455C8.22315 12.1047 8.17823 12.072 8.11698 12.0475C8.11053 12.0448 8.10406 12.0422 8.09756 12.0397L8.0875 12.0269C8.0581 11.9849 8.0119 11.9513 7.9489 11.9261C7.8901 11.9009 7.8292 11.8883 7.7662 11.8883C7.657 11.8883 7.5646 11.9261 7.489 12.0017C7.4176 12.0731 7.3819 12.1634 7.3819 12.2726V15.9455C7.3819 16.0463 7.4134 16.1303 7.4764 16.1975C7.5394 16.2647 7.6213 16.2983 7.7221 16.2983C7.75383 16.2983 7.78365 16.2952 7.81155 16.2891C7.83813 16.2952 7.86644 16.2983 7.89648 16.2983C7.99857 16.2983 8.08023 16.2656 8.14148 16.2003C8.20682 16.135 8.23948 16.0533 8.23948 15.9553V13.4644L10.387 16.1912C10.4122 16.2248 10.4521 16.2521 10.5067 16.2731C10.5655 16.2899 10.6243 16.2983 10.6831 16.2983C10.6979 16.2983 10.7124 16.2976 10.7265 16.2963C10.7428 16.2976 10.759 16.2983 10.7752 16.2983C10.8814 16.2983 10.9692 16.2636 11.0386 16.1942C11.1121 16.1207 11.1489 16.0308 11.1489 15.9247V12.3538C11.1489 12.2558 11.1182 12.1741 11.057 12.1088C11.0513 12.1027 11.0454 12.0969 11.0394 12.0914C11.0238 12.0538 11.0016 12.0197 10.9729 11.9891Z" fill="#125BB8"/>
<path d="M14.7803 15.6872C14.7089 15.6116 14.6186 15.5738 14.5094 15.5738H12.8354V14.4608H14.2196C14.3299 14.4608 14.4197 14.4302 14.4891 14.3689C14.5414 14.3197 14.574 14.2601 14.5869 14.1901C14.6024 14.1493 14.6102 14.1045 14.6102 14.0555C14.6102 13.9463 14.5724 13.8581 14.4968 13.7909C14.4254 13.7195 14.3351 13.6838 14.2259 13.6838H12.8354V12.7152H14.4953C14.6055 12.7152 14.6953 12.6845 14.7648 12.6233C14.8276 12.5642 14.862 12.49 14.8679 12.4009C14.8851 12.3585 14.8937 12.3115 14.8937 12.26C14.8937 12.1508 14.8559 12.0626 14.7803 11.9954C14.7089 11.924 14.6186 11.8883 14.5094 11.8883H12.3989C12.2897 11.8883 12.1973 11.9261 12.1217 12.0017C12.0503 12.0731 12.0146 12.1634 12.0146 12.2726V15.914C12.0146 16.0232 12.0503 16.1156 12.1217 16.1912C12.1973 16.2626 12.2897 16.2983 12.3989 16.2983H14.5094C14.6186 16.2983 14.7089 16.2647 14.7803 16.1975C14.8559 16.1303 14.8937 16.0442 14.8937 15.9392C14.8937 15.8426 14.8559 15.7586 14.7803 15.6872Z" fill="#125BB8"/>
<path d="M20.8552 11.9891C20.7712 11.9093 20.6788 11.8694 20.578 11.8694C20.494 11.8694 20.4163 11.8925 20.3449 11.9387C20.311 11.9599 20.2824 11.9854 20.2592 12.0151C20.2279 12.0261 20.1977 12.041 20.1686 12.0598C20.1033 12.1006 20.0584 12.1578 20.0339 12.2313L19.2005 14.7595L18.499 12.9971C18.4654 12.9215 18.4171 12.8627 18.3541 12.8207C18.2953 12.7745 18.226 12.7535 18.1462 12.7577C18.0664 12.7535 17.995 12.7745 17.932 12.8207C17.8978 12.8435 17.8679 12.8712 17.8424 12.9039C17.8358 12.9081 17.8292 12.9125 17.8228 12.9173C17.7615 12.9581 17.7146 13.0153 17.6819 13.0888L16.9385 14.8729L16.0294 12.1151C16.0042 12.0395 15.958 11.9807 15.8908 11.9387C15.8236 11.8925 15.748 11.8694 15.664 11.8694C15.559 11.8694 15.4624 11.9093 15.3742 11.9891C15.3055 12.0509 15.2648 12.1269 15.2524 12.2168C15.2265 12.2683 15.2135 12.3262 15.2135 12.3905C15.2135 12.4273 15.2196 12.4681 15.2319 12.513L16.4385 16.0655C16.463 16.135 16.5059 16.1901 16.5671 16.2309C16.6284 16.2717 16.6958 16.2942 16.7693 16.2983C16.7853 16.2983 16.8011 16.2973 16.8167 16.2954C16.8272 16.2967 16.8377 16.2977 16.8484 16.2983C16.924 16.2983 16.9954 16.2773 17.0626 16.2353C17.1298 16.1933 17.1823 16.1324 17.2201 16.0526L18.0496 14.179L18.8763 16.0594C18.913 16.137 18.9641 16.1962 19.0294 16.237C19.0947 16.2779 19.1641 16.2983 19.2376 16.2983C19.2602 16.297 19.2822 16.294 19.3036 16.2893C19.3309 16.2953 19.3588 16.2983 19.3873 16.2983C19.4629 16.2941 19.5322 16.271 19.5952 16.229C19.6582 16.187 19.7023 16.1303 19.7275 16.0589L20.9686 12.4049C20.9812 12.3587 20.9875 12.3167 20.9875 12.2789C20.9875 12.1613 20.9434 12.0647 20.8552 11.9891Z" fill="#125BB8"/>
</svg>
