<svg width="43" height="43" viewBox="0 0 43 43" fill="none" xmlns="http://www.w3.org/2000/svg">
<path d="M9.3667 30.7328V12.8862C9.3667 9.26244 12.4218 6.32489 16.1904 6.32489L30.6533 6.27378L30.6567 6.25928L12.0962 6.32489C8.32751 6.32489 5.27246 9.26244 5.27246 12.8862V30.7328C5.27246 34.3565 8.32751 37.2941 12.0962 37.2941L15.6485 37.2735C12.1332 37.0079 9.3667 34.1811 9.3667 30.7328Z" fill="#CEE1F2"/>
<path d="M30.6567 38.6064H12.0962C7.58107 38.6064 3.90771 35.0744 3.90771 30.7329V12.8862C3.90771 8.54476 7.58107 5.0127 12.0962 5.0127H30.6567C35.1719 5.0127 38.8452 8.54476 38.8452 12.8862V30.7329C38.8452 35.0744 35.1719 38.6064 30.6567 38.6064ZM12.0962 7.63721C9.08611 7.63721 6.63721 9.99192 6.63721 12.8862V30.7329C6.63721 33.6272 9.08611 35.9819 12.0962 35.9819H30.6567C33.6668 35.9819 36.1157 33.6272 36.1157 30.7329V12.8862C36.1157 9.99192 33.6668 7.63721 30.6567 7.63721H12.0962ZM20.08 30.9954C20.08 30.2706 19.469 29.6831 18.7152 29.6831H10.7314C9.9777 29.6831 9.3667 30.2706 9.3667 30.9954C9.3667 31.7201 9.9777 32.3076 10.7314 32.3076H18.7152C19.469 32.3076 20.08 31.7201 20.08 30.9954Z" fill="#EB2025"/>
<path d="M10.6558 20.4658H31.4436C32.1973 20.4658 32.8083 19.8783 32.8083 19.1536C32.8083 18.4288 32.1973 17.8413 31.4436 17.8413H10.6558C9.90201 17.8413 9.29102 18.4288 9.29102 19.1536C9.29102 19.8783 9.90201 20.4658 10.6558 20.4658Z" fill="#EB2025"/>
<path d="M10.6802 14.7891H31.9535C32.7073 14.7891 33.3182 14.2016 33.3182 13.4768C33.3182 12.752 32.7073 12.1646 31.9535 12.1646H10.6802C9.92643 12.1646 9.31543 12.752 9.31543 13.4768C9.31543 14.2016 9.92643 14.7891 10.6802 14.7891Z" fill="#EB2025"/>
<path d="M10.6807 26.1421H31.4445C32.1982 26.1421 32.8092 25.5546 32.8092 24.8298C32.8092 24.1051 32.1982 23.5176 31.4445 23.5176H10.6807C9.92691 23.5176 9.31592 24.1051 9.31592 24.8298C9.31592 25.5546 9.92691 26.1421 10.6807 26.1421Z" fill="#EB2025"/>
</svg>
